<svg width="100" height="101" viewBox="0 0 100 101" fill="none" xmlns="http://www.w3.org/2000/svg">
<mask id="mask0_36_100" style="mask-type:alpha" maskUnits="userSpaceOnUse" x="0" y="0" width="100" height="101">
<rect y="0.709961" width="100" height="100" fill="#D9D9D9"/>
</mask>
<g mask="url(#mask0_36_100)">
<path d="M49.9999 92.375C44.7915 92.375 39.9131 91.3854 35.3645 89.4063C30.8159 87.4271 26.8575 84.7535 23.4895 81.3854C20.1214 78.0174 17.4478 74.059 15.4686 69.5104C13.4895 64.9618 12.4999 60.0833 12.4999 54.875C12.4999 49.6667 13.4895 44.7882 15.4686 40.2396C17.4478 35.691 20.1214 31.7326 23.4895 28.3646C26.8575 24.9965 30.8159 22.3229 35.3645 20.3438C39.9131 18.3646 44.7915 17.375 49.9999 17.375C55.2082 17.375 60.0867 18.3646 64.6353 20.3438C69.1839 22.3229 73.1423 24.9965 76.5103 28.3646C79.8784 31.7326 82.552 35.691 84.5311 40.2396C86.5103 44.7882 87.4999 49.6667 87.4999 54.875C87.4999 60.0833 86.5103 64.9618 84.5311 69.5104C82.552 74.059 79.8784 78.0174 76.5103 81.3854C73.1423 84.7535 69.1839 87.4271 64.6353 89.4063C60.0867 91.3854 55.2082 92.375 49.9999 92.375ZM61.6666 72.375L67.4999 66.5417L54.1665 53.2083V34.0417H45.8332V56.5417L61.6666 72.375ZM23.3332 10.5L29.1665 16.3333L11.4582 34.0417L5.62488 28.2083L23.3332 10.5ZM76.6666 10.5L94.3749 28.2083L88.5416 34.0417L70.8332 16.3333L76.6666 10.5ZM49.9999 84.0417C58.1249 84.0417 65.0172 81.2118 70.677 75.5521C76.3367 69.8924 79.1666 63 79.1666 54.875C79.1666 46.75 76.3367 39.8576 70.677 34.1979C65.0172 28.5382 58.1249 25.7083 49.9999 25.7083C41.8749 25.7083 34.9825 28.5382 29.3228 34.1979C23.6631 39.8576 20.8332 46.75 20.8332 54.875C20.8332 63 23.6631 69.8924 29.3228 75.5521C34.9825 81.2118 41.8749 84.0417 49.9999 84.0417Z" fill="#00068D"/>
</g>
</svg>
