<svg width="100" height="101" viewBox="0 0 100 101" fill="none" xmlns="http://www.w3.org/2000/svg">
<mask id="mask0_36_85" style="mask-type:alpha" maskUnits="userSpaceOnUse" x="0" y="0" width="100" height="101">
<rect y="0.709961" width="100" height="100" fill="#D9D9D9"/>
</mask>
<g mask="url(#mask0_36_85)">
<path d="M20.8332 92.3763C18.5415 92.3763 16.5797 91.5603 14.9478 89.9284C13.3159 88.2964 12.4999 86.3346 12.4999 84.043V25.7096C12.4999 23.418 13.3159 21.4562 14.9478 19.8242C16.5797 18.1923 18.5415 17.3763 20.8332 17.3763H24.9999V9.04297H33.3332V17.3763H66.6665V9.04297H74.9999V17.3763H79.1665C81.4582 17.3763 83.42 18.1923 85.052 19.8242C86.6839 21.4562 87.4999 23.418 87.4999 25.7096V84.043C87.4999 86.3346 86.6839 88.2964 85.052 89.9284C83.42 91.5603 81.4582 92.3763 79.1665 92.3763H20.8332ZM20.8332 84.043H79.1665V42.3763H20.8332V84.043ZM20.8332 34.043H79.1665V25.7096H20.8332V34.043Z" fill="#00068D"/>
</g>
</svg>
