<svg width="100" height="101" viewBox="0 0 100 101" fill="none" xmlns="http://www.w3.org/2000/svg">
<mask id="mask0_36_104" style="mask-type:alpha" maskUnits="userSpaceOnUse" x="0" y="0" width="100" height="101">
<rect y="0.709961" width="100" height="100" fill="#D9D9D9"/>
</mask>
<g mask="url(#mask0_36_104)">
<path d="M50.0001 50.7096C52.2917 50.7096 54.2536 49.8937 55.8855 48.2617C57.5174 46.6298 58.3334 44.668 58.3334 42.3763C58.3334 40.0846 57.5174 38.1228 55.8855 36.4909C54.2536 34.8589 52.2917 34.043 50.0001 34.043C47.7084 34.043 45.7466 34.8589 44.1147 36.4909C42.4827 38.1228 41.6667 40.0846 41.6667 42.3763C41.6667 44.668 42.4827 46.6298 44.1147 48.2617C45.7466 49.8937 47.7084 50.7096 50.0001 50.7096ZM50.0001 81.3346C58.4723 73.5569 64.757 66.4909 68.8542 60.1367C72.9515 53.7826 75.0001 48.1402 75.0001 43.2096C75.0001 35.6402 72.5869 29.4423 67.7605 24.6159C62.9341 19.7895 57.014 17.3763 50.0001 17.3763C42.9862 17.3763 37.0661 19.7895 32.2397 24.6159C27.4133 29.4423 25.0001 35.6402 25.0001 43.2096C25.0001 48.1402 27.0487 53.7826 31.1459 60.1367C35.2431 66.4909 41.5279 73.5569 50.0001 81.3346ZM50.0001 92.3763C38.8195 82.8624 30.4688 74.0256 24.948 65.8659C19.4272 57.7062 16.6667 50.1541 16.6667 43.2096C16.6667 32.793 20.0174 24.4944 26.7188 18.3138C33.4202 12.1332 41.1806 9.04297 50.0001 9.04297C58.8195 9.04297 66.5799 12.1332 73.2813 18.3138C79.9827 24.4944 83.3334 32.793 83.3334 43.2096C83.3334 50.1541 80.573 57.7062 75.0522 65.8659C69.5313 74.0256 61.1806 82.8624 50.0001 92.3763Z" fill="#00068D"/>
</g>
</svg>
