<svg width="234" height="157" viewBox="0 0 234 157" fill="none" xmlns="http://www.w3.org/2000/svg">
<rect width="234" height="157" fill="black"/>
<path d="M116.037 103.819C115.588 103.819 115.19 103.508 115.093 103.049L110.933 83.0348C110.826 82.5148 111.158 82.005 111.683 81.898L138.587 76.3209C139.103 76.2138 139.618 76.5452 139.725 77.0652C139.833 77.5852 139.501 78.0949 138.975 78.202L113.016 83.5803L116.976 102.652C117.084 103.172 116.752 103.681 116.226 103.788C116.16 103.804 116.093 103.809 116.027 103.809" fill="#FDD900"/>
<path d="M107.426 63.4733C106.977 63.4733 106.579 63.1623 106.482 62.7086L104.272 52.0641C104.165 51.5442 104.497 51.0344 105.017 50.9273C105.533 50.8202 106.048 51.1516 106.155 51.6767L108.366 62.3212C108.473 62.8411 108.141 63.3509 107.615 63.458C107.549 63.4733 107.483 63.4784 107.416 63.4784" fill="#FDD900"/>
<mask id="mask0_20_94" style="mask-type:luminance" maskUnits="userSpaceOnUse" x="37" y="34" width="155" height="94">
<path d="M191.318 34.0781H37.0917V127.406H191.318V34.0781Z" fill="white"/>
</mask>
<g mask="url(#mask0_20_94)">
<path d="M109.932 127.436C109.83 127.436 109.733 127.421 109.636 127.39L98.6575 123.863C98.3257 123.756 98.0807 123.48 98.0092 123.144L81.8853 45.5279C81.7781 45.0079 82.1099 44.4982 82.6356 44.3911L132.268 34.1035C132.426 34.0678 132.59 34.0729 132.758 34.1188C132.758 34.1188 132.794 34.129 132.809 34.1341C132.972 34.1953 133.11 34.2921 133.212 34.4145L141.568 43.8711C141.803 44.1362 141.869 44.5033 141.752 44.8346L137.484 56.7943C137.367 57.1206 137.091 57.3551 136.749 57.4163C136.413 57.4775 136.066 57.3551 135.841 57.0951L127.776 47.6742C127.557 47.4193 127.486 47.0675 127.593 46.7463L131.038 36.3262L83.9678 46.0836L99.7804 122.201L109.983 125.479L148.642 117.465L152.143 107.554L118.461 114.533C118.211 114.584 117.951 114.533 117.737 114.396C117.522 114.253 117.374 114.034 117.323 113.784L115.093 103.043C114.986 102.523 115.317 102.013 115.843 101.906L145.069 95.8495C145.406 95.7781 145.758 95.8954 145.988 96.1554L154.338 105.607C154.451 105.729 154.532 105.887 154.573 106.061C154.609 106.244 154.593 106.428 154.532 106.591L150.286 118.607C150.173 118.923 149.903 119.162 149.571 119.229L110.132 127.401C110.065 127.416 110.004 127.421 109.938 127.421M117.175 103.603L119.013 112.453L151.802 105.658L144.906 97.853L117.175 103.603ZM129.599 46.833L136.224 54.5767L139.746 44.7174L132.87 36.9328L129.599 46.8279V46.833Z" fill="#FDD900"/>
<path d="M109.932 127.436C109.483 127.436 109.085 127.125 108.988 126.666L93.9361 54.2146C93.8289 53.6947 94.1607 53.1849 94.6864 53.0778L128.323 46.109C128.838 46.0019 129.354 46.3333 129.461 46.8532C129.568 47.3732 129.236 47.883 128.71 47.9901L96.0186 54.7652L110.877 126.279C110.984 126.799 110.652 127.309 110.126 127.416C110.06 127.431 109.994 127.436 109.927 127.436" fill="#FDD900"/>
</g>
<path d="M114.087 94.459C113.638 94.459 113.24 94.148 113.143 93.6892C113.036 93.1692 113.368 92.6594 113.893 92.5523L133.815 88.423L137.704 77.4727L130.119 68.8929L109.626 73.1395C109.376 73.1905 109.116 73.1395 108.901 73.0018C108.687 72.8591 108.539 72.6399 108.488 72.3901L106.477 62.6989C106.37 62.1789 106.702 61.6692 107.227 61.5621L136.377 55.5211C136.892 55.414 137.408 55.7454 137.515 56.2654C137.622 56.7853 137.291 57.2951 136.765 57.4022L108.559 63.2495L110.183 71.0544L130.278 66.8894C130.619 66.8181 130.967 66.9353 131.196 67.1953L139.526 76.6214C139.756 76.8813 139.827 77.2484 139.71 77.5798L135.448 89.5752C135.336 89.8912 135.065 90.1257 134.733 90.1971L114.276 94.4386C114.21 94.4539 114.143 94.459 114.077 94.459" fill="#FDD900"/>
<path d="M98.4586 79.2056C98.9384 79.0781 99.4233 78.7213 99.7551 78.0636L100.858 75.9531C101.077 75.5554 101.189 75.1833 101.194 74.8978C101.21 73.9292 100.368 73.4704 99.5101 73.6998C99.0303 73.8273 98.5454 74.1892 98.2136 74.8417L97.1163 76.9574C96.8968 77.355 96.7845 77.7272 96.7794 78.0126C96.7641 78.9813 97.6062 79.4401 98.4637 79.2107" fill="white"/>
<mask id="mask1_20_94" style="mask-type:luminance" maskUnits="userSpaceOnUse" x="37" y="34" width="155" height="94">
<path d="M191.318 34.0781H37.0917V127.406H191.318V34.0781Z" fill="white"/>
</mask>
<g mask="url(#mask1_20_94)">
<path d="M189.684 69.1624C189.205 69.2899 188.664 69.662 188.332 70.3757C188 71.0333 187.73 71.5024 187.347 72.058C185.708 74.4286 183.825 75.7285 182.539 76.0752C181.467 76.3607 181.207 76.0344 181.217 75.4074C181.247 73.5823 186.035 67.4699 186.107 63.0704C186.168 59.3591 181.809 59.0481 179.691 58.365C179.64 58.3242 179.589 58.2223 179.481 58.1968C179.538 58.0082 179.543 57.7227 179.548 57.4984C179.578 55.7294 177.925 55.9435 177.603 56.0302C176.909 56.2188 175.454 57.116 175.424 58.8289C175.408 59.6854 175.822 60.3685 176.404 60.8426C175.031 63.4833 172.999 66.8683 171.366 69.0095L170.493 70.1514C168.099 73.2917 163.745 78.9504 160.264 79.8782C157.962 80.4951 157.253 78.41 157.181 76.4422C162.643 74.5254 168.16 69.5804 168.232 65.13C168.273 62.5606 166.548 60.9191 163.873 61.6379C160.53 62.5351 155.497 67.7197 154.267 74.0156L153.808 74.6223C151.138 78.1195 148.484 80.9947 145.723 83.4927C147.075 78.9249 148.214 74.5866 149.388 71.3749C149.775 70.3604 149.944 69.9169 150.327 69.193C150.434 68.9942 150.439 68.8208 150.551 68.622C150.715 68.2958 150.776 67.995 150.781 67.7095C150.796 66.7409 150.005 66.2719 149.153 66.4962C148.617 66.6389 148.132 67.0519 147.8 67.7707L147.744 67.842C146.738 67.373 145.462 67.317 144.125 67.6738C139.838 68.8208 134.361 73.8627 132.085 79.4602C132.054 79.4959 132.028 79.5214 131.998 79.5622L131.125 80.7041C130.038 82.1315 125.194 88.3714 122.54 90.956C122.162 91.3435 121.892 91.527 121.784 91.5576C121.733 91.5729 121.677 91.5321 121.682 91.4148C121.682 91.2466 121.744 91.0019 121.856 90.5737C122.708 87.4486 125.271 83.6915 125.316 80.9539C125.368 77.9869 123.637 76.3454 120.748 77.1152C117.323 78.0328 113.797 82.1009 110.795 86.373C111.255 84.4307 111.551 82.5903 111.576 81.1629C111.581 80.7041 111.454 78.8637 109.688 79.3379C108.83 79.5673 108.182 80.3676 107.906 80.7806C106.595 82.779 104.466 85.7918 103.379 87.2192L102.506 88.3612C102.394 88.509 102.307 88.6467 102.231 88.7843C100.25 91.4352 95.9831 97.4355 93.6097 98.0727C93.2831 98.1594 93.0738 98.0064 92.936 97.7464C92.6859 97.2825 92.6808 96.4873 92.6859 96.161C92.7012 95.1567 93.0125 93.9587 93.4617 92.7097C94.263 90.487 95.5136 88.0808 96.3659 86.2557C96.5854 85.7408 96.7539 85.2973 96.7641 84.8997C96.7641 84.6703 96.7181 84.4001 96.565 84.1554C96.3557 83.8138 95.9321 83.6405 95.4523 83.6558L94.7581 83.8393C92.1346 84.7111 88.6536 85.8734 84.162 87.1326C87.3419 81.6217 91.4762 73.1286 91.5477 69.0706C91.5783 67.3017 90.4656 67.0315 89.7153 67.2303C88.9139 67.4444 88.4239 68.0867 88.1534 68.4436L88.0973 68.515L88.0411 68.5863C86.8927 70.3145 83.3913 79.2665 81.1914 86.5004C79.2161 89.8702 77.2 92.8524 75.8933 94.5704L75.4748 95.1159L75.0205 95.6563C72.8972 98.4398 70.2533 100.453 67.5226 101.3C68.5281 98.3582 69.7582 94.963 70.9321 91.578C75.4697 84.4511 80.4156 75.5144 80.487 71.12C80.5075 69.7487 79.946 68.4232 78.3943 68.8412C77.7002 69.0248 77.103 69.5855 76.7763 69.9577C74.061 72.9553 70.1308 85.2056 69.013 88.458C68.9568 88.5855 68.7323 89.2125 68.3443 90.227C66.2108 93.5814 64.2457 96.4363 63.0463 98.0115L62.1735 99.1535C58.2535 104.292 52.0979 112.648 46.3201 114.197C42.15 115.314 40.2156 113.106 40.2666 109.905C40.333 105.969 43.1198 101.641 46.5242 98.6233C47.5859 98.9088 48.8619 98.8476 50.3064 98.4602C53.6751 97.5578 55.0941 95.4728 55.1247 93.8771C55.1502 92.3936 54.0477 91.3231 52.1745 91.8227C50.4646 92.2815 48.423 93.3979 46.856 94.5551C46.0138 93.8159 45.6106 92.6128 45.6361 91.1293C45.7229 85.9346 50.6841 79.1492 57.2072 77.4057C59.0804 76.9061 59.4377 77.7728 59.4275 78.4049C59.4172 79.0881 59.0242 80.1586 57.9932 81.3464C57.5593 81.8613 57.3399 82.3201 57.3297 82.7739C57.3143 83.6864 58.1004 84.3848 58.9579 84.1554C59.2794 84.0687 59.6571 83.7985 59.9838 83.4264C61.612 81.6268 62.6073 79.4857 62.6379 77.5434C62.689 74.5764 60.4738 73.1235 57.2633 73.9799C49.1886 76.1415 42.5481 84.6244 42.4256 91.9909C42.395 93.9332 42.8952 95.7888 43.9926 97.0276C40.1084 100.795 37.1429 105.964 37.0612 110.761C36.9744 115.9 40.3278 119.209 46.2639 117.618C53.2719 115.742 59.698 107.086 64.3835 100.948L64.4397 100.877C61.5865 108.972 58.4475 118.561 58.3913 121.931C58.3556 123.985 59.0702 125.897 61.316 125.296C65.3278 124.22 69.9368 116.226 70.044 109.604C70.0797 107.606 69.6816 105.725 68.8037 104.251C70.5391 103.619 74.4131 101.04 77.0775 97.6343C77.2408 97.4559 77.4144 97.2417 77.6134 96.9869L78.1442 96.3547C78.2514 96.212 78.3382 96.0794 78.4148 95.9469L78.4709 95.8704C76.1689 102.967 73.1626 110.818 72.5603 115.13C72.4991 115.543 72.494 115.946 72.4889 116.344C72.4481 118.684 73.3821 120.254 75.8423 119.764L76.1638 119.678C81.9927 118.118 83.0697 107.825 83.4117 103.415C83.5495 101.448 83.6924 99.2503 83.7281 97.1347C83.7639 94.8508 83.6975 92.6536 83.4627 90.7266C86.8315 89.8243 90.4707 88.7384 92.2418 88.1522C90.8637 91.0784 89.5315 94.2187 89.4856 97.0174C89.4397 99.7601 90.6749 102.268 93.5638 101.493C97.6267 100.408 102.001 93.7803 104.778 90.1353L105.65 88.9933C105.758 88.8506 105.844 88.7129 105.921 88.5804C106.441 87.8973 107.105 87.0051 107.779 86.0365C107.09 89.1768 105.962 92.8881 105.068 95.2281C104.956 95.5441 104.9 95.8398 104.895 96.1253C104.88 97.0939 105.671 97.568 106.523 97.3386C107.11 97.1806 107.437 96.8645 107.82 96.2528C110.555 91.9399 116.583 81.6319 120.702 80.5257C121.667 80.2657 122.142 80.541 122.121 81.7951C122.091 83.6762 118.487 89.0188 118.421 93.0717C118.39 94.7846 119.334 95.8959 121.044 95.4371C123.581 94.7591 128.195 89.1717 131.135 85.384C131.523 87.2702 133.008 88.7639 135.438 88.1165C137.577 87.5455 140.169 85.4859 142.997 81.7747C142.66 82.886 142.323 84.0025 142.032 85.1597C141.92 85.644 141.747 86.3169 141.522 87C136.831 90.4156 127.435 95.0904 127.322 101.942C127.266 105.256 130.181 106.178 132.483 105.562C137.99 104.088 141.471 96.6759 144.161 88.6823C147.137 86.5412 149.918 84.0993 154.155 78.8077C154.696 82.0958 156.686 84.2472 160.224 83.2989C164.878 82.055 169.559 76.0854 172.713 71.9408L173.586 70.7988C173.586 70.7988 173.586 70.7937 173.591 70.7886C175.439 68.362 177.572 64.8394 179.058 61.9998C180.967 62.5708 182.932 62.841 182.911 63.9217C182.855 67.2915 178.078 72.7717 178.022 76.2587C177.971 79.2818 180.196 80.1127 182.493 79.4959C184.846 78.8637 187.597 76.8246 189.725 73.6945C190.215 72.94 190.71 72.1243 191.098 71.3392C191.267 70.9518 191.323 70.6561 191.328 70.3706C191.343 69.402 190.552 68.9279 189.695 69.1573M61.9642 121.712C61.6426 121.798 61.5967 121.528 61.6018 121.069C61.6273 119.474 62.3164 116.39 64.1641 111.179C64.3325 110.736 64.8378 109.125 65.6749 106.683C66.3027 107.483 66.8131 108.707 66.7825 110.42C66.6753 116.869 62.8166 121.487 61.9591 121.712H61.9642ZM80.2012 104.042C80.0583 106.24 79.211 115.446 76.2149 116.247L76.1077 116.277C75.8423 116.293 75.6841 116.109 75.6943 115.538C75.6943 115.365 75.6994 115.141 75.7555 114.896C76.5211 110.369 77.9809 105.944 79.7776 100.52L80.6759 97.721L80.1961 104.042H80.2012ZM132.529 102.141C131.247 102.482 130.512 101.769 130.523 101.086C130.553 99.3727 131.86 97.6037 134.611 95.4422C136.714 93.8007 138.495 92.5262 140.057 91.425C138.327 96.0947 135.739 101.274 132.529 102.136V102.141ZM135.484 84.6958C134.79 84.8844 134.213 84.4103 134.228 83.4417C134.31 78.4763 139.955 72.1906 144.074 71.0894C144.824 70.8906 145.513 70.9314 146.039 71.2475C143.237 76.5442 138.853 83.7985 135.484 84.7009V84.6958ZM163.822 65.0586C164.679 64.8292 165.042 65.2421 165.032 65.9864C164.996 68.0969 161.586 71.2831 157.728 72.8278C158.743 69.5448 161.198 65.7621 163.822 65.0586Z" fill="white"/>
</g>
<path d="M121.779 81.781L121.391 79.8948L128.231 78.4775L128.624 80.3638L121.779 81.781Z" fill="#F8DD48"/>
<path d="M122.856 92.6499L122.249 90.8248L130.002 89.2139L130.155 91.1766L122.856 92.6499Z" fill="#F8DD48"/>
<path d="M135.571 99.7505L134.958 97.9254L142.711 96.3145L142.864 98.2772L135.571 99.7505Z" fill="#F8DD48"/>
<path d="M121.391 79.8936C120.488 80.0261 119.493 80.4645 117.563 82.6158L122.065 80.6684" fill="#F8DD48"/>
<path d="M122.856 92.6483C122.647 92.8319 120.764 93.6017 121.769 90.9151L123.05 90.6602L122.856 92.6483Z" fill="#F8DD48"/>
<path d="M131.191 79.8278L130.803 77.9416L138.077 76.4326L138.465 78.3188L131.191 79.8278Z" fill="#F8DD48"/>
<path d="M90.9708 79.7881L89.0823 80.1806L92.747 97.3198C92.747 97.3198 92.8389 98.9053 94.656 97.5441" fill="#F8DD48"/>
</svg>
