<svg width="516" height="334" viewBox="0 0 516 334" fill="none" xmlns="http://www.w3.org/2000/svg">
<path d="M127.048 29.6095C127.048 28.7838 126.911 28.0475 126.635 27.4006C126.36 26.7538 125.906 26.1758 125.273 25.6665C124.653 25.1436 123.814 24.6619 122.754 24.2215C121.708 23.7673 120.401 23.32 118.832 22.8796C117.332 22.453 115.976 21.9851 114.765 21.4758C113.554 20.9666 112.515 20.3817 111.648 19.7211C110.795 19.0605 110.141 18.2898 109.687 17.409C109.233 16.5144 109.005 15.4754 109.005 14.2918C109.005 13.1357 109.253 12.0829 109.749 11.1333C110.244 10.1837 110.939 9.36479 111.834 8.67667C112.742 7.98854 113.809 7.45868 115.033 7.08709C116.272 6.7155 117.628 6.52971 119.1 6.52971C121.206 6.52971 123.023 6.92882 124.55 7.72705C126.092 8.52528 127.282 9.60564 128.122 10.9681C128.975 12.3169 129.402 13.8307 129.402 15.5098H126.862C126.862 14.2023 126.553 13.0394 125.933 12.021C125.328 10.9888 124.447 10.1837 123.291 9.60564C122.149 9.01385 120.752 8.71796 119.1 8.71796C117.449 8.71796 116.059 8.97256 114.93 9.48178C113.815 9.97723 112.969 10.6447 112.391 11.4842C111.827 12.31 111.545 13.2321 111.545 14.2505C111.545 14.9662 111.682 15.6268 111.957 16.2323C112.233 16.8241 112.68 17.3815 113.299 17.9045C113.932 18.4137 114.765 18.8954 115.797 19.3495C116.829 19.7899 118.102 20.2097 119.616 20.6088C121.213 21.0492 122.63 21.5378 123.869 22.0745C125.108 22.6113 126.154 23.2306 127.007 23.9325C127.86 24.6206 128.507 25.4257 128.947 26.3478C129.388 27.2699 129.608 28.3434 129.608 29.5682C129.608 30.7931 129.346 31.8941 128.823 32.8712C128.314 33.8346 127.592 34.6535 126.656 35.3278C125.734 36.0022 124.64 36.5183 123.374 36.8761C122.121 37.234 120.752 37.4129 119.265 37.4129C117.93 37.4129 116.602 37.2408 115.281 36.8968C113.96 36.5527 112.749 36.0229 111.648 35.3072C110.561 34.5778 109.687 33.6419 109.026 32.4996C108.379 31.3574 108.056 29.9949 108.056 28.4122H110.574C110.574 29.6783 110.829 30.7449 111.338 31.612C111.847 32.479 112.522 33.1809 113.361 33.7176C114.215 34.2544 115.15 34.6466 116.169 34.8943C117.201 35.1283 118.233 35.2453 119.265 35.2453C120.848 35.2453 122.217 35.0113 123.374 34.5434C124.543 34.0755 125.445 33.4217 126.078 32.5822C126.725 31.7289 127.048 30.738 127.048 29.6095ZM153.974 8.7386L143.569 37H140.927L152.281 6.94259H154.118L153.974 8.7386ZM163.429 37L153.004 8.7386L152.859 6.94259H154.696L166.071 37H163.429ZM161.571 26.3891V28.5773H145.613V26.3891H161.571ZM196.919 34.8324V37H181.333V34.8324H196.919ZM182.076 6.94259V37H179.537V6.94259H182.076ZM231.669 20.3611V23.5815C231.669 25.6872 231.393 27.5933 230.843 29.2999C230.306 30.9926 229.522 32.4446 228.49 33.6557C227.471 34.8668 226.246 35.7958 224.815 36.4426C223.384 37.0895 221.773 37.4129 219.984 37.4129C218.236 37.4129 216.64 37.0895 215.195 36.4426C213.764 35.7958 212.532 34.8668 211.5 33.6557C210.467 32.4446 209.669 30.9926 209.105 29.2999C208.541 27.5933 208.259 25.6872 208.259 23.5815V20.3611C208.259 18.2554 208.534 16.3562 209.084 14.6634C209.649 12.9568 210.447 11.498 211.479 10.2869C212.511 9.07578 213.743 8.14681 215.174 7.49997C216.606 6.85313 218.195 6.52971 219.943 6.52971C221.732 6.52971 223.342 6.85313 224.774 7.49997C226.205 8.14681 227.437 9.07578 228.469 10.2869C229.501 11.498 230.292 12.9568 230.843 14.6634C231.393 16.3562 231.669 18.2554 231.669 20.3611ZM229.15 23.5815V20.3198C229.15 18.5444 228.944 16.948 228.531 15.5304C228.132 14.1129 227.533 12.9018 226.735 11.8971C225.95 10.8924 224.987 10.1217 223.845 9.585C222.702 9.04826 221.402 8.77989 219.943 8.77989C218.525 8.77989 217.252 9.04826 216.124 9.585C214.995 10.1217 214.032 10.8924 213.234 11.8971C212.449 12.9018 211.844 14.1129 211.417 15.5304C211.004 16.948 210.798 18.5444 210.798 20.3198V23.5815C210.798 25.3706 211.004 26.9809 211.417 28.4122C211.844 29.8297 212.456 31.0477 213.254 32.0661C214.053 33.0708 215.016 33.8415 216.145 34.3782C217.287 34.915 218.567 35.1833 219.984 35.1833C221.457 35.1833 222.757 34.915 223.886 34.3782C225.015 33.8415 225.971 33.0708 226.755 32.0661C227.54 31.0477 228.132 29.8297 228.531 28.4122C228.944 26.9809 229.15 25.3706 229.15 23.5815ZM269.474 6.94259V37H266.914L249.635 11.3191V37H247.096V6.94259H249.635L266.955 32.6235V6.94259H269.474ZM308.028 6.94259V37H305.489V6.94259H308.028ZM322.024 20.774V22.9622H307.181V20.774H322.024ZM324.109 6.94259V9.13083H307.181V6.94259H324.109ZM356.423 6.94259H358.962V27.2974C358.962 29.5545 358.487 31.433 357.538 32.9332C356.588 34.4333 355.308 35.5549 353.698 36.2981C352.102 37.0413 350.333 37.4129 348.393 37.4129C346.397 37.4129 344.601 37.0413 343.005 36.2981C341.408 35.5549 340.142 34.4333 339.206 32.9332C338.284 31.433 337.823 29.5545 337.823 27.2974V6.94259H340.342V27.2974C340.342 29.0452 340.686 30.511 341.374 31.6945C342.062 32.8781 343.011 33.7658 344.223 34.3576C345.434 34.9494 346.824 35.2453 348.393 35.2453C349.948 35.2453 351.331 34.9494 352.542 34.3576C353.753 33.7658 354.703 32.8781 355.391 31.6945C356.079 30.511 356.423 29.0452 356.423 27.2974V6.94259ZM342.385 1.67841C342.385 1.21048 342.537 0.81825 342.839 0.501711C343.142 0.17141 343.555 0.00625944 344.078 0.00625944C344.601 0.00625944 345.014 0.17141 345.317 0.501711C345.619 0.81825 345.771 1.21048 345.771 1.67841C345.771 2.13257 345.619 2.51793 345.317 2.83446C345.014 3.151 344.601 3.30927 344.078 3.30927C343.555 3.30927 343.142 3.151 342.839 2.83446C342.537 2.51793 342.385 2.13257 342.385 1.67841ZM351.427 1.69905C351.427 1.23113 351.572 0.832013 351.861 0.501711C352.164 0.17141 352.583 0.00625944 353.12 0.00625944C353.643 0.00625944 354.056 0.17141 354.359 0.501711C354.661 0.832013 354.813 1.23113 354.813 1.69905C354.813 2.15322 354.661 2.53857 354.359 2.85511C354.056 3.17165 353.643 3.32992 353.12 3.32992C352.583 3.32992 352.164 3.17165 351.861 2.85511C351.572 2.53857 351.427 2.15322 351.427 1.69905ZM375.05 6.94259H384.814C386.893 6.94259 388.696 7.27977 390.223 7.95413C391.751 8.6285 392.927 9.62628 393.753 10.9475C394.593 12.2549 395.013 13.8651 395.013 15.7781C395.013 17.1957 394.71 18.4825 394.104 19.6385C393.512 20.7946 392.694 21.7649 391.648 22.5493C390.602 23.32 389.391 23.8499 388.014 24.1389L387.127 24.4692H376.701L376.66 22.3016H385.392C386.961 22.3016 388.269 21.9988 389.315 21.3933C390.361 20.7877 391.145 19.9895 391.668 18.9986C392.205 17.9939 392.473 16.9204 392.473 15.7781C392.473 14.4157 392.177 13.239 391.586 12.248C391.008 11.2434 390.147 10.4727 389.005 9.93594C387.863 9.3992 386.466 9.13083 384.814 9.13083H377.589V37H375.05V6.94259ZM393.609 37L385.826 23.5609L388.551 23.5402L396.313 36.7316V37H393.609Z" fill="white"/>
<path d="M48.1156 65.6142V68.0461L19.3678 123.891H27.7056C38.3014 123.891 44.6416 118.594 47.5945 106.087H49.679L48.6368 126.41H4.34257V124.239L33.4378 68.1329H25.3606C15.199 68.1329 11.2907 70.0436 6.86126 83.9398H4.77682L5.90589 65.6142H48.1156ZM103.065 126.41H86.0419L85.347 119.375C83.5232 123.37 79.8754 127.279 71.8851 127.279C63.8079 127.279 58.5968 123.284 58.5968 112.774V87.3271H52.8646V85.0689H70.8429V114.077C70.8429 120.939 71.9719 123.457 76.054 123.457C80.9176 123.457 85.0865 118.159 85.0865 111.559V87.3271H79.7886V85.0689H97.3325V124.152H103.065V126.41ZM133.156 126.41V124.152H138.107L126.729 104.871L123.776 105.479V124.152H128.64V126.41H105.885V124.152H111.53V63.5298H105.711V61.2716H123.776V102.96L126.034 102.352L143.231 87.3271H136.022V85.0689H153.392V87.3271H147.226L135.675 97.5755L151.568 124.152H155.39V126.41H133.156ZM206.201 126.41H189.178L188.483 119.375C186.659 123.37 183.011 127.279 175.021 127.279C166.944 127.279 161.733 123.284 161.733 112.774V87.3271H156.001V85.0689H173.979V114.077C173.979 120.939 175.108 123.457 179.19 123.457C184.054 123.457 188.222 118.159 188.222 111.559V87.3271H182.925V85.0689H200.469V124.152H206.201V126.41ZM209.021 85.0689H226.912V92.8855C228.823 88.543 232.471 84.2004 241.069 84.2004C249.059 84.2004 254.183 88.1956 254.183 98.7046V124.152H259.916V126.41H236.9V124.152H241.937V97.4018C241.937 90.5406 240.635 88.2824 236.9 88.2824C231.689 88.2824 226.912 94.0146 226.912 101.571V124.152H232.036V126.41H209.021V124.152H214.666V87.3271H209.021V85.0689ZM296.502 115.467V87.3271H280.261V124.152H290.857V126.41H262.457V124.152H268.102V87.3271H262.196V85.0689H268.102V82.3765C268.102 68.1329 273.052 59.2741 286.601 59.2741C295.113 59.2741 299.195 63.7035 299.195 68.7409C299.195 73.1703 296.676 75.4284 293.028 75.4284C289.207 75.4284 287.122 73.344 287.122 70.0436C287.122 68.9146 287.296 67.6986 287.643 66.6564H290.423C290.683 65.7879 290.77 65.0931 290.77 64.4851C290.77 62.4007 289.207 61.3585 286.688 61.3585C281.13 61.3585 280.261 65.8748 280.261 72.3018V85.0689H296.502V77.9471L308.748 74.8205V85.0689H320.473V87.3271H308.748V115.814C308.748 120.765 309.791 123.284 313.525 123.284C317.694 123.284 320.039 119.896 320.821 113.99L322.905 114.251C322.123 121.025 319.431 127.279 309.443 127.279C301.887 127.279 296.502 124.76 296.502 115.467ZM326.452 127.279V112.253H328.45C330.361 121.286 335.919 124.499 342.954 124.499C349.642 124.499 352.334 121.894 352.334 118.159C352.334 113.382 347.731 112.514 341.478 111.037C334.53 109.474 326.8 107.477 326.8 98.0966C326.8 90.0194 332.706 84.2004 341.651 84.2004C345.386 84.2004 347.818 85.0689 350.337 86.198C351.118 86.5454 351.9 86.8928 352.768 86.8928C353.811 86.8928 354.158 86.0243 354.505 84.0267H356.242V97.1413H354.332C351.987 89.9326 347.905 86.6322 341.825 86.6322C336.44 86.6322 333.314 88.7167 333.314 92.1907C333.314 96.7938 338.351 97.7492 344.17 99.052C351.031 100.702 358.674 102.873 358.674 113.122C358.674 121.981 352.768 127.279 342.954 127.279C338.438 127.279 335.138 126.236 332.011 124.586C331.49 124.239 330.882 123.891 330.534 123.891C329.579 123.891 329.058 124.586 328.276 127.279H326.452Z" fill="white"/>
<path d="M133.227 164.831V162.573H153.638V164.831H149.208L158.762 193.058L167.1 164.831H160.846V162.573H173.961V164.831H169.879L157.893 204.175H151.032L141.131 176.382L130.796 204.175H124.195L109.864 164.831H105.782V162.573H127.843V164.831H122.892L132.098 193.405L139.654 172.561L137.136 164.831H133.227ZM179.707 148.416C179.707 144.942 181.878 141.815 186.828 141.815C190.997 141.815 193.69 143.9 193.69 148.416C193.69 152.238 191.518 155.104 186.741 155.104C181.183 155.104 179.707 151.543 179.707 148.416ZM175.451 162.573H193.516V201.656H199.248V203.914H175.625V201.656H181.27V164.831H175.451V162.573ZM228.662 165.265C223.972 165.265 219.89 172.387 219.89 180.204V201.656H227.619V203.914H201.998V201.656H207.643V164.831H201.998V162.573H219.89V170.65C221.713 164.484 225.969 161.704 231.006 161.704C236.304 161.704 239.952 165.092 239.952 170.737C239.952 175.687 237.433 178.119 233.699 178.119C230.225 178.119 227.619 176.208 227.619 171.692C227.619 170.911 227.706 170.042 227.88 169.174H230.572C230.92 168.392 231.006 167.784 231.006 167.263C231.006 165.613 229.791 165.265 228.662 165.265ZM246.893 192.971V164.831H241.247V162.573H246.893V151.369L259.226 148.242V162.573H270.864V164.831H259.226V193.318C259.226 198.269 260.181 200.787 264.003 200.787C268.171 200.787 270.516 197.4 271.298 191.494L273.296 191.755C272.514 198.529 269.822 204.783 259.921 204.783C252.364 204.783 246.893 202.264 246.893 192.971ZM276.852 204.783V189.757H278.85C280.761 198.79 286.319 202.003 293.354 202.003C300.042 202.003 302.734 199.398 302.734 195.663C302.734 190.886 298.131 190.018 291.878 188.541C284.93 186.978 277.2 184.98 277.2 175.601C277.2 167.523 283.106 161.704 292.051 161.704C295.786 161.704 298.218 162.573 300.737 163.702C301.518 164.049 302.3 164.397 303.168 164.397C304.211 164.397 304.558 163.528 304.905 161.531H306.642V174.645H304.732C302.387 167.436 298.305 164.136 292.225 164.136C286.84 164.136 283.714 166.221 283.714 169.695C283.714 174.298 288.751 175.253 294.57 176.556C301.431 178.206 309.074 180.377 309.074 190.626C309.074 199.485 303.168 204.783 293.354 204.783C288.838 204.783 285.538 203.74 282.411 202.09C281.89 201.743 281.282 201.395 280.934 201.395C279.979 201.395 279.458 202.09 278.676 204.783H276.852ZM335.959 163.789C329.271 163.789 326.318 168.826 326.318 183.243C326.318 196.271 329.184 201.482 336.654 201.482C344.644 201.482 347.423 195.229 348.379 190.278L350.81 190.626C349.768 196.011 346.989 204.783 333.266 204.783C320.499 204.783 313.378 197.313 313.378 183.938C313.378 169.174 322.063 161.704 335.351 161.704C345.252 161.704 350.55 166.047 350.55 172.734C350.55 177.598 348.031 180.03 344.297 180.03C340.562 180.03 337.87 177.859 337.87 173.69C337.87 172.908 337.956 171.779 338.304 170.563H340.996C341.257 169.695 341.431 168.826 341.431 168.044C341.431 165.613 339.693 163.789 335.959 163.789ZM353.988 138.776H371.879V170.303C373.703 166.047 377.438 161.704 385.949 161.704C394.026 161.704 399.151 165.699 399.151 176.208V201.656H404.883V203.914H381.867V201.656H386.905V174.906C386.905 167.61 385.515 165.526 382.041 165.526C376.569 165.526 371.879 171.258 371.879 178.727V201.656H377.004V203.914H353.988V201.656H359.633V141.034H353.988V138.776ZM427.573 183.157H431.482V176.816C431.482 167.35 430.005 163.789 424.707 163.789C421.668 163.789 419.236 164.831 419.236 167.176C419.236 167.697 419.323 168.305 419.496 168.913H421.841C422.276 170.042 422.536 171.171 422.536 172.561C422.536 176.208 419.844 178.38 416.283 178.38C412.114 178.38 410.203 175.861 410.203 172.04C410.203 165.265 416.891 161.704 426.792 161.704C438.864 161.704 443.641 165.526 443.641 178.119V195.229C443.641 198.877 444.683 200.093 446.333 200.093C448.07 200.093 449.199 198.703 449.807 191.755L451.805 191.929C451.371 201.482 448.505 204.783 441.73 204.783C435.911 204.783 432.698 202.698 431.829 198.616C429.918 202.698 426.271 204.783 420.712 204.783C414.372 204.783 408.292 202.611 408.292 194.447C408.292 185.502 415.849 183.157 427.573 183.157ZM425.142 201.048C428.268 201.048 431.482 197.921 431.482 192.537V185.328H429.484C423.231 185.328 420.973 188.368 420.973 194.187C420.973 199.311 422.276 201.048 425.142 201.048ZM487.779 192.971V164.831H471.538V201.656H482.134V203.914H453.733V201.656H459.379V164.831H453.473V162.573H459.379V159.88C459.379 145.637 464.329 136.778 477.878 136.778C486.389 136.778 490.471 141.207 490.471 146.245C490.471 150.674 487.953 152.932 484.305 152.932C480.484 152.932 478.399 150.848 478.399 147.548C478.399 146.418 478.573 145.203 478.92 144.16H481.7C481.96 143.292 482.047 142.597 482.047 141.989C482.047 139.905 480.484 138.862 477.965 138.862C472.406 138.862 471.538 143.379 471.538 149.806V162.573H487.779V155.451L500.025 152.324V162.573H511.75V164.831H500.025V193.318C500.025 198.269 501.067 200.787 504.802 200.787C508.971 200.787 511.316 197.4 512.097 191.494L514.182 191.755C513.4 198.529 510.708 204.783 500.72 204.783C493.164 204.783 487.779 202.264 487.779 192.971Z" fill="white"/>
<path d="M111.295 290.137V283.189L122.325 271.464C133.442 259.826 136.916 252.964 136.916 242.542C136.916 234.291 134.745 231.078 128.231 231.078C123.454 231.078 120.328 233.51 120.328 236.897C120.328 237.679 120.501 238.634 120.849 239.502H123.368C123.802 240.718 124.062 242.021 124.062 243.584C124.062 247.058 121.283 249.23 117.635 249.23C113.293 249.23 111.121 246.103 111.121 242.021C111.121 233.683 118.504 228.385 130.316 228.385C143.256 228.385 149.597 234.031 149.597 243.15C149.597 252.27 145.341 257.133 118.764 279.888H137.264C145.515 279.888 147.425 276.675 148.728 269.987H150.639L149.944 290.137H111.295ZM156.746 259.652C156.746 236.984 167.255 228.385 180.717 228.385C194.353 228.385 204.862 236.81 204.862 259.652C204.862 282.494 194.092 291.005 180.717 291.005C164.215 291.005 156.746 277.804 156.746 259.652ZM170.382 259.826C170.382 281.278 172.119 288.313 180.717 288.313C189.489 288.313 191.139 281.365 191.139 259.912C191.139 238.286 189.229 231.078 180.717 231.078C172.379 231.078 170.382 238.634 170.382 259.826ZM210.19 290.137V283.189L221.22 271.464C232.337 259.826 235.811 252.964 235.811 242.542C235.811 234.291 233.64 231.078 227.126 231.078C222.35 231.078 219.223 233.51 219.223 236.897C219.223 237.679 219.397 238.634 219.744 239.502H222.263C222.697 240.718 222.957 242.021 222.957 243.584C222.957 247.058 220.178 249.23 216.53 249.23C212.188 249.23 210.017 246.103 210.017 242.021C210.017 233.683 217.399 228.385 229.211 228.385C242.152 228.385 248.492 234.031 248.492 243.15C248.492 252.27 244.236 257.133 217.66 279.888H236.159C244.41 279.888 246.321 276.675 247.623 269.987H249.534L248.839 290.137H210.19ZM272.664 255.83C268.756 255.83 264.761 257.307 261.113 259.565L259.55 258.783V230.296L260.939 229.254C268.148 230.296 284.737 232.12 287.255 232.12C289.253 232.12 290.035 231.078 290.729 228.472L292.553 228.733C291.077 240.631 289.6 243.237 286.213 243.237C284.302 243.237 281.957 242.542 279.004 241.587L262.503 236.81L262.155 256.091C265.977 254.18 270.146 252.877 275.27 252.877C290.556 252.877 295.419 261.997 295.419 271.029C295.419 283.449 286.126 291.005 272.056 291.005C263.892 291.005 254.947 287.792 254.947 278.325C254.947 274.33 257.118 271.116 261.547 271.116C265.195 271.116 267.801 273.461 267.801 276.935C267.801 278.325 267.453 279.715 267.106 280.93H264.587C264.24 281.712 264.066 282.494 264.066 283.275C264.066 286.142 267.106 288.313 271.796 288.313C279.526 288.313 281.784 282.146 281.784 270.335C281.784 260.26 279.873 255.83 272.664 255.83Z" fill="white"/>
</svg>
