<svg width="192" height="92" viewBox="0 0 192 92" fill="none" xmlns="http://www.w3.org/2000/svg">
<path d="M47.0613 11.2624C47.0613 10.9565 47.0103 10.6838 46.9084 10.4442C46.8064 10.2046 46.6382 9.99048 46.4037 9.80185C46.1743 9.60813 45.8633 9.4297 45.4707 9.26657C45.0833 9.09834 44.599 8.93265 44.0178 8.76952C43.4622 8.61148 42.96 8.43815 42.5114 8.24953C42.0628 8.06091 41.6779 7.84425 41.3567 7.59954C41.0406 7.35484 40.7985 7.06936 40.6303 6.74309C40.462 6.41173 40.3779 6.02683 40.3779 5.58841C40.3779 5.16018 40.4697 4.77019 40.6532 4.41843C40.8367 4.06668 41.0942 3.76335 41.4255 3.50845C41.762 3.25356 42.1571 3.05729 42.6108 2.91964C43.0696 2.782 43.5718 2.71317 44.1172 2.71317C44.8972 2.71317 45.5702 2.86101 46.136 3.15669C46.707 3.45238 47.148 3.85256 47.4589 4.35726C47.775 4.85686 47.9331 5.41763 47.9331 6.03958H46.9925C46.9925 5.55527 46.8778 5.1245 46.6484 4.74725C46.4241 4.36491 46.0978 4.06668 45.6696 3.85256C45.2464 3.63335 44.729 3.52375 44.1172 3.52375C43.5055 3.52375 42.9906 3.61806 42.5726 3.80668C42.1596 3.99021 41.8461 4.23746 41.632 4.54843C41.423 4.85431 41.3185 5.19587 41.3185 5.57312C41.3185 5.83821 41.3695 6.08291 41.4714 6.30722C41.5734 6.52643 41.7391 6.7329 41.9685 6.92662C42.203 7.11524 42.5114 7.29367 42.8937 7.4619C43.2761 7.62503 43.7476 7.78052 44.3084 7.92836C44.8998 8.09149 45.4249 8.27247 45.8837 8.47129C46.3425 8.67011 46.7299 8.89952 47.046 9.15951C47.3621 9.41441 47.6017 9.71264 47.7648 10.0542C47.928 10.3958 48.0095 10.7934 48.0095 11.2471C48.0095 11.7008 47.9127 12.1087 47.7189 12.4706C47.5303 12.8275 47.2627 13.1308 46.916 13.3806C46.5745 13.6304 46.1692 13.8216 45.7002 13.9541C45.2362 14.0867 44.729 14.1529 44.1784 14.1529C43.6839 14.1529 43.192 14.0892 42.7026 13.9618C42.2132 13.8343 41.7646 13.638 41.3567 13.373C40.954 13.1028 40.6303 12.7561 40.3856 12.333C40.146 11.9098 40.0262 11.4052 40.0262 10.8189H40.9591C40.9591 11.2879 41.0534 11.683 41.242 12.0042C41.4306 12.3253 41.6804 12.5853 41.9914 12.7841C42.3075 12.983 42.6541 13.1283 43.0314 13.22C43.4137 13.3067 43.7961 13.35 44.1784 13.35C44.7647 13.35 45.2719 13.2633 45.7002 13.09C46.1335 12.9167 46.4674 12.6745 46.7019 12.3636C46.9415 12.0475 47.0613 11.6804 47.0613 11.2624ZM57.0351 3.53139L53.1811 14H52.2023L56.4081 2.86611H57.0886L57.0351 3.53139ZM60.5374 14L56.6757 3.53139L56.6222 2.86611H57.3028L61.5162 14H60.5374ZM59.8492 10.0695V10.8801H53.9381V10.0695H59.8492ZM72.9429 13.1971V14H67.1695V13.1971H72.9429ZM67.4448 2.86611V14H66.5042V2.86611H67.4448ZM85.8149 7.8366V9.02951C85.8149 9.8095 85.713 10.5156 85.509 11.1477C85.3102 11.7748 85.0196 12.3126 84.6373 12.7612C84.2601 13.2098 83.8063 13.5539 83.2762 13.7935C82.746 14.0331 82.1495 14.1529 81.4868 14.1529C80.8393 14.1529 80.248 14.0331 79.7127 13.7935C79.1825 13.5539 78.7262 13.2098 78.3439 12.7612C77.9616 12.3126 77.6659 11.7748 77.4569 11.1477C77.2478 10.5156 77.1433 9.8095 77.1433 9.02951V7.8366C77.1433 7.05661 77.2453 6.3531 77.4492 5.72605C77.6582 5.09391 77.9539 4.55353 78.3363 4.10491C78.7186 3.65629 79.1749 3.31218 79.705 3.07258C80.2352 2.83298 80.824 2.71317 81.4715 2.71317C82.1342 2.71317 82.7307 2.83298 83.2609 3.07258C83.791 3.31218 84.2473 3.65629 84.6297 4.10491C85.012 4.55353 85.3051 5.09391 85.509 5.72605C85.713 6.3531 85.8149 7.05661 85.8149 7.8366ZM84.882 9.02951V7.8213C84.882 7.16367 84.8055 6.57231 84.6526 6.04722C84.5048 5.52214 84.283 5.07352 83.9873 4.70137C83.6967 4.32922 83.3399 4.04374 82.9167 3.84492C82.4936 3.6461 82.0119 3.54669 81.4715 3.54669C80.9464 3.54669 80.4748 3.6461 80.0568 3.84492C79.6388 4.04374 79.2819 4.32922 78.9862 4.70137C78.6957 5.07352 78.4713 5.52214 78.3133 6.04722C78.1604 6.57231 78.0839 7.16367 78.0839 7.8213V9.02951C78.0839 9.69225 78.1604 10.2887 78.3133 10.8189C78.4713 11.344 78.6982 11.7951 78.9939 12.1724C79.2896 12.5445 79.6464 12.83 80.0645 13.0288C80.4876 13.2277 80.9617 13.3271 81.4868 13.3271C82.0323 13.3271 82.514 13.2277 82.932 13.0288C83.3501 12.83 83.7044 12.5445 83.995 12.1724C84.2855 11.7951 84.5048 11.344 84.6526 10.8189C84.8055 10.2887 84.882 9.69225 84.882 9.02951ZM99.8187 2.86611V14H98.8704L92.47 4.48726V14H91.5294V2.86611H92.47L98.8857 12.3789V2.86611H99.8187ZM114.1 2.86611V14H113.159V2.86611H114.1ZM119.285 7.98954V8.80011H113.786V7.98954H119.285ZM120.057 2.86611V3.67668H113.786V2.86611H120.057ZM132.027 2.86611H132.967V10.406C132.967 11.242 132.791 11.9379 132.439 12.4936C132.088 13.0492 131.614 13.4647 131.017 13.74C130.426 14.0153 129.771 14.1529 129.052 14.1529C128.313 14.1529 127.647 14.0153 127.056 13.74C126.465 13.4647 125.996 13.0492 125.649 12.4936C125.307 11.9379 125.137 11.242 125.137 10.406V2.86611H126.07V10.406C126.07 11.0534 126.197 11.5963 126.452 12.0347C126.707 12.4732 127.059 12.802 127.507 13.0212C127.956 13.2404 128.471 13.35 129.052 13.35C129.628 13.35 130.14 13.2404 130.589 13.0212C131.038 12.802 131.389 12.4732 131.644 12.0347C131.899 11.5963 132.027 11.0534 132.027 10.406V2.86611ZM126.827 0.916153C126.827 0.742823 126.883 0.597532 126.995 0.48028C127.107 0.357929 127.26 0.296754 127.454 0.296754C127.647 0.296754 127.8 0.357929 127.912 0.48028C128.025 0.597532 128.081 0.742823 128.081 0.916153C128.081 1.08438 128.025 1.22713 127.912 1.34438C127.8 1.46163 127.647 1.52026 127.454 1.52026C127.26 1.52026 127.107 1.46163 126.995 1.34438C126.883 1.22713 126.827 1.08438 126.827 0.916153ZM130.176 0.9238C130.176 0.75047 130.23 0.60263 130.337 0.48028C130.449 0.357929 130.604 0.296754 130.803 0.296754C130.997 0.296754 131.15 0.357929 131.262 0.48028C131.374 0.60263 131.43 0.75047 131.43 0.9238C131.43 1.09203 131.374 1.23477 131.262 1.35203C131.15 1.46928 130.997 1.52791 130.803 1.52791C130.604 1.52791 130.449 1.46928 130.337 1.35203C130.23 1.23477 130.176 1.09203 130.176 0.9238ZM138.926 2.86611H142.543C143.313 2.86611 143.981 2.99101 144.547 3.24081C145.113 3.49061 145.549 3.86021 145.854 4.34961C146.165 4.83392 146.321 5.43037 146.321 6.13899C146.321 6.66407 146.209 7.14073 145.984 7.56896C145.765 7.99718 145.462 8.35659 145.074 8.64717C144.687 8.93265 144.238 9.12892 143.729 9.23598L143.4 9.35833H139.538L139.523 8.55541H142.757C143.339 8.55541 143.823 8.44325 144.21 8.21894C144.598 7.99463 144.888 7.69895 145.082 7.3319C145.281 6.95975 145.38 6.56211 145.38 6.13899C145.38 5.63429 145.271 5.19842 145.051 4.83137C144.837 4.45922 144.519 4.17373 144.096 3.97491C143.672 3.77609 143.155 3.67668 142.543 3.67668H139.867V14H138.926V2.86611ZM145.801 14L142.918 9.02187L143.927 9.01422L146.803 13.9006V14H145.801Z" fill="white"/>
<path d="M17.823 24.4487V25.3495L7.17425 46.0358H10.2627C14.1876 46.0358 16.5362 44.0733 17.63 39.4406H18.4021L18.0161 46.9688H1.60858V46.1645L12.386 25.3817H9.39409C5.63002 25.3817 4.1823 26.0894 2.54155 31.2369H1.76943L2.18766 24.4487H17.823ZM38.1773 46.9688H31.8717L31.6143 44.3629C30.9387 45.8427 29.5875 47.2905 26.6277 47.2905C23.6358 47.2905 21.7055 45.8106 21.7055 41.9178V32.4916H19.5822V31.6551H26.2417V42.4004C26.2417 44.9419 26.6599 45.8749 28.172 45.8749C29.9736 45.8749 31.5178 43.9125 31.5178 41.4674V32.4916H29.5553V31.6551H36.054V46.1323H38.1773V46.9688ZM49.3237 46.9688V46.1323H51.1575L46.943 38.9902L45.8492 39.2154V46.1323H47.6508V46.9688H39.2219V46.1323H41.313V23.6766H39.1575V22.8401H45.8492V38.2824L46.6857 38.0572L53.0556 32.4916H50.3854V31.6551H56.8197V32.4916H54.5355L50.2567 36.2878L56.1441 46.1323H57.5596V46.9688H49.3237ZM76.381 46.9688H70.0754L69.818 44.3629C69.1424 45.8427 67.7912 47.2905 64.8314 47.2905C61.8395 47.2905 59.9092 45.8106 59.9092 41.9178V32.4916H57.7859V31.6551H64.4454V42.4004C64.4454 44.9419 64.8636 45.8749 66.3757 45.8749C68.1773 45.8749 69.7215 43.9125 69.7215 41.4674V32.4916H67.759V31.6551H74.2577V46.1323H76.381V46.9688ZM77.4256 31.6551H84.0529V34.5505C84.7607 32.942 86.1119 31.3334 89.2969 31.3334C92.2566 31.3334 94.1548 32.8133 94.1548 36.706V46.1323H96.2781V46.9688H87.7526V46.1323H89.6186V36.2235C89.6186 33.6819 89.136 32.8454 87.7526 32.8454C85.8223 32.8454 84.0529 34.9688 84.0529 37.7677V46.1323H85.951V46.9688H77.4256V46.1323H79.5167V32.4916H77.4256V31.6551ZM109.831 42.9151V32.4916H103.815V46.1323H107.739V46.9688H97.2194V46.1323H99.3105V32.4916H97.1228V31.6551H99.3105V30.6578C99.3105 25.3817 101.144 22.1002 106.163 22.1002C109.316 22.1002 110.828 23.7409 110.828 25.6069C110.828 27.2476 109.895 28.0841 108.544 28.0841C107.128 28.0841 106.356 27.3119 106.356 26.0894C106.356 25.6712 106.42 25.2208 106.549 24.8347H107.579C107.675 24.513 107.707 24.2556 107.707 24.0304C107.707 23.2583 107.128 22.8723 106.195 22.8723C104.136 22.8723 103.815 24.5452 103.815 26.9259V31.6551H109.831V29.017L114.367 27.8589V31.6551H118.71V32.4916H114.367V43.0438C114.367 44.8776 114.753 45.8106 116.136 45.8106C117.68 45.8106 118.549 44.5559 118.839 42.3682L119.611 42.4647C119.321 44.9741 118.324 47.2905 114.624 47.2905C111.825 47.2905 109.831 46.3575 109.831 42.9151ZM120.925 47.2905V41.7248H121.665C122.372 45.0706 124.431 46.261 127.037 46.261C129.515 46.261 130.512 45.2958 130.512 43.9125C130.512 42.143 128.807 41.8213 126.49 41.2744C123.917 40.6953 121.053 39.9554 121.053 36.4808C121.053 33.4889 123.241 31.3334 126.555 31.3334C127.938 31.3334 128.839 31.6551 129.772 32.0733C130.061 32.202 130.351 32.3307 130.673 32.3307C131.059 32.3307 131.187 32.009 131.316 31.269H131.96V36.1269H131.252C130.383 33.4567 128.871 32.2342 126.619 32.2342C124.624 32.2342 123.466 33.0063 123.466 34.2932C123.466 35.9983 125.332 36.3521 127.488 36.8347C130.029 37.446 132.86 38.2503 132.86 42.0465C132.86 45.328 130.673 47.2905 127.037 47.2905C125.364 47.2905 124.142 46.9044 122.984 46.2931C122.791 46.1645 122.565 46.0358 122.437 46.0358C122.083 46.0358 121.89 46.2931 121.6 47.2905H120.925Z" fill="white"/>
<path d="M49.3502 61.1986V60.3621H56.9105V61.1986H55.2697L58.8086 71.6543L61.8971 61.1986H59.5807V60.3621H64.4386V61.1986H62.9266L58.4869 75.7723H55.9453L52.2778 65.4774L48.4494 75.7723H46.0043L40.696 61.1986H39.184V60.3621H47.3555V61.1986H45.5218L48.9319 71.783L51.7309 64.0619L50.7979 61.1986H49.3502ZM66.567 55.1182C66.567 53.8313 67.3712 52.6731 69.205 52.6731C70.7493 52.6731 71.7466 53.4453 71.7466 55.1182C71.7466 56.5337 70.9423 57.5954 69.1729 57.5954C67.1139 57.5954 66.567 56.2763 66.567 55.1182ZM64.9906 60.3621H71.6822V74.8393H73.8056V75.6758H65.0549V74.8393H67.146V61.1986H64.9906V60.3621ZM84.7009 61.3594C82.9636 61.3594 81.4516 63.9975 81.4516 66.893V74.8393H84.3148V75.6758H74.8242V74.8393H76.9154V61.1986H74.8242V60.3621H81.4516V63.3541C82.1272 61.0699 83.7036 60.0404 85.5695 60.0404C87.532 60.0404 88.8832 61.2951 88.8832 63.3863C88.8832 65.22 87.9502 66.1208 86.5668 66.1208C85.28 66.1208 84.3148 65.4131 84.3148 63.7401C84.3148 63.4506 84.347 63.1289 84.4114 62.8072H85.4087C85.5374 62.5176 85.5695 62.2924 85.5695 62.0994C85.5695 61.4881 85.1191 61.3594 84.7009 61.3594ZM91.4542 71.6222V61.1986H89.363V60.3621H91.4542V56.212L96.0225 55.0538V60.3621H100.333V61.1986H96.0225V71.7509C96.0225 73.5846 96.3764 74.5176 97.7919 74.5176C99.3362 74.5176 100.205 73.2629 100.494 71.0753L101.234 71.1718C100.945 73.6811 99.9474 75.9975 96.2799 75.9975C93.481 75.9975 91.4542 75.0645 91.4542 71.6222ZM102.552 75.9975V70.4318H103.292C104 73.7777 106.059 74.968 108.664 74.968C111.142 74.968 112.139 74.0029 112.139 72.6195C112.139 70.8501 110.434 70.5283 108.117 69.9814C105.544 69.4023 102.681 68.6624 102.681 65.1879C102.681 62.1959 104.868 60.0404 108.182 60.0404C109.565 60.0404 110.466 60.3621 111.399 60.7804C111.689 60.909 111.978 61.0377 112.3 61.0377C112.686 61.0377 112.815 60.716 112.943 59.9761H113.587V64.834H112.879C112.01 62.1637 110.498 60.9412 108.246 60.9412C106.252 60.9412 105.093 61.7133 105.093 63.0002C105.093 64.7053 106.959 65.0592 109.115 65.5417C111.656 66.153 114.487 66.9573 114.487 70.7535C114.487 74.035 112.3 75.9975 108.664 75.9975C106.991 75.9975 105.769 75.6114 104.611 75.0002C104.418 74.8715 104.193 74.7428 104.064 74.7428C103.71 74.7428 103.517 75.0002 103.227 75.9975H102.552ZM124.446 60.8125C121.969 60.8125 120.875 62.6785 120.875 68.019C120.875 72.8447 121.937 74.775 124.703 74.775C127.663 74.775 128.693 72.4586 129.047 70.6249L129.947 70.7535C129.561 72.7482 128.532 75.9975 123.449 75.9975C118.72 75.9975 116.081 73.2307 116.081 68.2763C116.081 62.8072 119.299 60.0404 124.221 60.0404C127.888 60.0404 129.851 61.649 129.851 64.1262C129.851 65.9278 128.918 66.8286 127.535 66.8286C126.151 66.8286 125.154 66.0243 125.154 64.4801C125.154 64.1905 125.186 63.7723 125.315 63.3219H126.312C126.409 63.0002 126.473 62.6785 126.473 62.3889C126.473 61.4881 125.829 60.8125 124.446 60.8125ZM131.124 51.5471H137.752V63.2254C138.427 61.649 139.811 60.0404 142.964 60.0404C145.955 60.0404 147.854 61.5203 147.854 65.4131V74.8393H149.977V75.6758H141.451V74.8393H143.317V64.9305C143.317 62.2281 142.803 61.456 141.516 61.456C139.489 61.456 137.752 63.5793 137.752 66.346V74.8393H139.65V75.6758H131.124V74.8393H133.216V52.3836H131.124V51.5471ZM158.382 67.9868H159.83V65.6383C159.83 62.1316 159.283 60.8125 157.32 60.8125C156.194 60.8125 155.294 61.1986 155.294 62.0672C155.294 62.2603 155.326 62.4855 155.39 62.7107H156.259C156.42 63.1289 156.516 63.5471 156.516 64.0619C156.516 65.4131 155.519 66.2174 154.2 66.2174C152.655 66.2174 151.948 65.2844 151.948 63.8688C151.948 61.3594 154.425 60.0404 158.092 60.0404C162.564 60.0404 164.334 61.456 164.334 66.1208V72.4586C164.334 73.8098 164.72 74.2602 165.331 74.2602C165.974 74.2602 166.393 73.7455 166.618 71.1718L167.358 71.2361C167.197 74.775 166.135 75.9975 163.626 75.9975C161.47 75.9975 160.28 75.2254 159.958 73.7133C159.251 75.2254 157.899 75.9975 155.84 75.9975C153.492 75.9975 151.24 75.1932 151.24 72.1691C151.24 68.8554 154.039 67.9868 158.382 67.9868ZM157.481 74.6141C158.639 74.6141 159.83 73.4559 159.83 71.4613V68.7911H159.09C156.773 68.7911 155.937 69.9171 155.937 72.0726C155.937 73.9707 156.42 74.6141 157.481 74.6141ZM180.683 71.6222V61.1986H174.667V74.8393H178.592V75.6758H168.072V74.8393H170.163V61.1986H167.976V60.3621H170.163V59.3648C170.163 54.0887 171.997 50.8072 177.016 50.8072C180.169 50.8072 181.681 52.4479 181.681 54.3139C181.681 55.9546 180.748 56.7911 179.397 56.7911C177.981 56.7911 177.209 56.019 177.209 54.7965C177.209 54.3782 177.273 53.9278 177.402 53.5418H178.431C178.528 53.2201 178.56 52.9627 178.56 52.7375C178.56 51.9654 177.981 51.5793 177.048 51.5793C174.989 51.5793 174.667 53.2522 174.667 55.6329V60.3621H180.683V57.7241L185.22 56.5659V60.3621H189.563V61.1986H185.22V71.7509C185.22 73.5846 185.606 74.5176 186.989 74.5176C188.533 74.5176 189.402 73.2629 189.691 71.0753L190.464 71.1718C190.174 73.6811 189.177 75.9975 185.477 75.9975C182.678 75.9975 180.683 75.0645 180.683 71.6222Z" fill="white"/>
</svg>
