<svg width="620" height="240" viewBox="0 0 620 240" fill="none" xmlns="http://www.w3.org/2000/svg">
<path d="M189.367 38.5382C189.367 37.4871 189.192 36.5498 188.841 35.7265C188.491 34.9031 187.913 34.1673 187.107 33.5191C186.319 32.8534 185.25 32.2403 183.901 31.6797C182.57 31.1016 180.905 30.5322 178.908 29.9717C176.999 29.4286 175.273 28.833 173.732 28.1848C172.19 27.5366 170.867 26.7921 169.764 25.9512C168.677 25.1103 167.845 24.1292 167.267 23.0081C166.689 21.8694 166.4 20.5467 166.4 19.0401C166.4 17.5686 166.715 16.2284 167.346 15.0196C167.977 13.8109 168.861 12.7685 170 11.8926C171.156 11.0167 172.514 10.3422 174.073 9.86921C175.65 9.39621 177.375 9.15971 179.25 9.15971C181.93 9.15971 184.243 9.66775 186.187 10.6838C188.149 11.6999 189.665 13.0751 190.733 14.8094C191.819 16.5262 192.362 18.4533 192.362 20.5905H189.13C189.13 18.9263 188.736 17.4459 187.948 16.1496C187.177 14.8357 186.056 13.8109 184.584 13.0751C183.13 12.3218 181.352 11.9452 179.25 11.9452C177.148 11.9452 175.378 12.2692 173.942 12.9174C172.523 13.5481 171.445 14.3977 170.71 15.4664C169.991 16.5175 169.632 17.6912 169.632 18.9876C169.632 19.8985 169.807 20.7394 170.158 21.5102C170.508 22.2635 171.078 22.973 171.866 23.6387C172.672 24.2869 173.732 24.9001 175.045 25.4782C176.359 26.0388 177.98 26.5731 179.907 27.0811C181.939 27.6417 183.743 28.2636 185.32 28.9468C186.897 29.63 188.228 30.4184 189.314 31.3118C190.4 32.1877 191.224 33.2126 191.784 34.3863C192.345 35.5601 192.625 36.9265 192.625 38.4856C192.625 40.0448 192.292 41.4463 191.627 42.6901C190.979 43.9164 190.059 44.9587 188.868 45.8171C187.694 46.6755 186.301 47.3325 184.689 47.7879C183.095 48.2434 181.352 48.4712 179.46 48.4712C177.761 48.4712 176.07 48.2522 174.389 47.8142C172.707 47.3763 171.165 46.7018 169.764 45.7908C168.38 44.8624 167.267 43.6711 166.426 42.2171C165.603 40.763 165.191 39.0287 165.191 37.0141H168.397C168.397 38.6258 168.721 39.9835 169.369 41.0871C170.018 42.1908 170.876 43.0842 171.945 43.7675C173.031 44.4507 174.222 44.95 175.518 45.2653C176.832 45.5631 178.146 45.712 179.46 45.712C181.475 45.712 183.218 45.4142 184.689 44.8186C186.178 44.2229 187.326 43.3908 188.132 42.3222C188.955 41.236 189.367 39.9747 189.367 38.5382Z" fill="white"/>
<path d="M214.274 11.9714L201.03 47.9456H197.666L212.119 9.68527H214.458L214.274 11.9714ZM226.309 47.9456L213.039 11.9714L212.855 9.68527H215.194L229.673 47.9456H226.309ZM223.944 34.4389V37.2243H203.632V34.4389H223.944Z" fill="white"/>
<path d="M259.573 45.1865V47.9456H239.733V45.1865H259.573ZM240.679 9.68527V47.9456H237.447V9.68527H240.679Z" fill="white"/>
<path d="M294.439 26.7658V30.8651C294.439 33.5454 294.089 35.9717 293.388 38.144C292.705 40.2988 291.706 42.147 290.392 43.6886C289.096 45.2302 287.537 46.4127 285.715 47.2361C283.893 48.0595 281.843 48.4712 279.566 48.4712C277.341 48.4712 275.309 48.0595 273.47 47.2361C271.648 46.4127 270.08 45.2302 268.766 43.6886C267.452 42.147 266.436 40.2988 265.718 38.144C264.999 35.9717 264.64 33.5454 264.64 30.8651V26.7658C264.64 24.0855 264.991 21.6679 265.691 19.5131C266.41 17.3408 267.426 15.4839 268.74 13.9423C270.053 12.4006 271.621 11.2181 273.443 10.3948C275.265 9.5714 277.289 9.15971 279.513 9.15971C281.791 9.15971 283.84 9.5714 285.662 10.3948C287.484 11.2181 289.052 12.4006 290.366 13.9423C291.68 15.4839 292.687 17.3408 293.388 19.5131C294.089 21.6679 294.439 24.0855 294.439 26.7658ZM291.233 30.8651V26.7132C291.233 24.4533 290.97 22.4212 290.445 20.6168C289.937 18.8124 289.175 17.2708 288.159 15.9919C287.16 14.7131 285.934 13.732 284.48 13.0488C283.026 12.3656 281.37 12.024 279.513 12.024C277.709 12.024 276.089 12.3656 274.652 13.0488C273.215 13.732 271.989 14.7131 270.973 15.9919C269.975 17.2708 269.204 18.8124 268.661 20.6168C268.135 22.4212 267.872 24.4533 267.872 26.7132V30.8651C267.872 33.1425 268.135 35.1922 268.661 37.0141C269.204 38.8185 269.983 40.3689 270.999 41.6652C272.015 42.9441 273.242 43.9251 274.678 44.6083C276.132 45.2916 277.762 45.6332 279.566 45.6332C281.44 45.6332 283.096 45.2916 284.532 44.6083C285.969 43.9251 287.186 42.9441 288.185 41.6652C289.184 40.3689 289.937 38.8185 290.445 37.0141C290.97 35.1922 291.233 33.1425 291.233 30.8651Z" fill="white"/>
<path d="M333.195 9.68527V47.9456H329.936L307.942 15.2561V47.9456H304.71V9.68527H307.942L329.989 42.3747V9.68527H333.195Z" fill="white"/>
<path d="M363.537 9.68527V47.9456H360.305V9.68527H363.537ZM381.354 27.2913V30.0768H362.46V27.2913H381.354ZM384.008 9.68527V12.4707H362.46V9.68527H384.008Z" fill="white"/>
<path d="M415.773 9.68527H419.005V35.5951C419.005 38.4681 418.401 40.8594 417.192 42.7689C415.983 44.6784 414.354 46.1062 412.305 47.0522C410.272 47.9982 408.021 48.4712 405.551 48.4712C403.011 48.4712 400.725 47.9982 398.693 47.0522C396.661 46.1062 395.049 44.6784 393.858 42.7689C392.684 40.8594 392.097 38.4681 392.097 35.5951V9.68527H395.303V35.5951C395.303 37.8199 395.741 39.6857 396.617 41.1922C397.493 42.6988 398.701 43.8288 400.243 44.5821C401.785 45.3354 403.554 45.712 405.551 45.712C407.531 45.712 409.291 45.3354 410.833 44.5821C412.375 43.8288 413.583 42.6988 414.459 41.1922C415.335 39.6857 415.773 37.8199 415.773 35.5951V9.68527ZM397.904 2.98445C397.904 2.38882 398.097 1.88955 398.482 1.48662C398.868 1.06618 399.393 0.855957 400.059 0.855957C400.725 0.855957 401.25 1.06618 401.636 1.48662C402.021 1.88955 402.214 2.38882 402.214 2.98445C402.214 3.56256 402.021 4.05308 401.636 4.456C401.25 4.85893 400.725 5.06039 400.059 5.06039C399.393 5.06039 398.868 4.85893 398.482 4.456C398.097 4.05308 397.904 3.56256 397.904 2.98445ZM409.414 3.01073C409.414 2.4151 409.598 1.90707 409.966 1.48662C410.351 1.06618 410.886 0.855957 411.569 0.855957C412.234 0.855957 412.76 1.06618 413.145 1.48662C413.531 1.90707 413.724 2.4151 413.724 3.01073C413.724 3.58884 413.531 4.07936 413.145 4.48228C412.76 4.88521 412.234 5.08667 411.569 5.08667C410.886 5.08667 410.351 4.88521 409.966 4.48228C409.598 4.07936 409.414 3.58884 409.414 3.01073Z" fill="white"/>
<path d="M430.117 9.68527H442.546C445.191 9.68527 447.486 10.1145 449.431 10.9729C451.375 11.8313 452.873 13.1014 453.924 14.7831C454.993 16.4474 455.527 18.4971 455.527 20.9321C455.527 22.7365 455.142 24.3745 454.371 25.8461C453.618 27.3176 452.575 28.5527 451.244 29.5512C449.913 30.5322 448.371 31.2067 446.619 31.5746L445.489 31.995H432.219L432.166 29.2359H443.282C445.279 29.2359 446.943 28.8505 448.275 28.0797C449.606 27.3089 450.605 26.2928 451.27 25.0314C451.954 23.7526 452.295 22.3862 452.295 20.9321C452.295 19.1978 451.919 17.7 451.165 16.4386C450.429 15.1598 449.335 14.1788 447.881 13.4955C446.426 12.8123 444.648 12.4707 442.546 12.4707H433.349V47.9456H430.117V9.68527ZM453.74 47.9456L443.834 30.8388L447.302 30.8125L457.183 47.604V47.9456H453.74Z" fill="white"/>
<path d="M59.8487 142.415V138.484L93.4614 87.7778H83.7442C77.5311 87.7778 73.4234 88.4256 71.421 89.7213C69.4187 90.9874 67.6961 93.9026 66.2532 98.4668H61.5271L62.4547 82.5217H112.852V86.5411L78.9739 137.159H92.7105C96.5385 137.159 99.3654 136.806 101.191 136.099C103.017 135.392 104.651 134.111 106.094 132.256C107.537 130.372 108.759 127.81 109.76 124.571H114.751L113.691 142.415H59.8487Z" fill="white"/>
<path d="M119.61 87.4245V82.5217H151.235V87.4245H150.219C147.245 87.4245 145.316 87.9692 144.433 89.0587C143.549 90.1482 143.108 92.0475 143.108 94.7565V118.387C143.108 122.686 143.461 126.072 144.168 128.546C144.874 131.019 146.42 133.125 148.805 134.862C151.19 136.599 154.047 137.468 157.374 137.468C160.996 137.468 164.088 136.541 166.65 134.685C169.241 132.83 170.919 130.578 171.685 127.928C172.451 125.248 172.833 121.523 172.833 116.753V96.6116C172.833 90.4869 169.874 87.4245 163.955 87.4245V82.5217H186.128V87.4245C184.862 87.4245 183.537 87.7925 182.153 88.5287C180.769 89.2354 179.812 90.2366 179.282 91.5322C178.752 92.7984 178.487 94.5799 178.487 96.8767V116.885C178.487 121.184 178.207 124.703 177.648 127.442C177.118 130.151 175.837 132.771 173.805 135.304C171.773 137.807 168.946 139.824 165.325 141.355C161.703 142.886 157.683 143.652 153.266 143.652C148.643 143.652 144.491 142.901 140.811 141.399C137.159 139.868 134.362 137.954 132.419 135.657C130.475 133.331 129.15 130.813 128.443 128.104C127.766 125.366 127.427 122.127 127.427 118.387V94.7565C127.427 91.9297 126.942 90.001 125.97 88.9704C124.998 87.9398 122.878 87.4245 119.61 87.4245Z" fill="white"/>
<path d="M213.557 118.74V130.18C213.557 132.948 214.014 134.862 214.926 135.922C215.869 136.982 217.886 137.512 220.978 137.512V142.415H189.75V137.512H190.678C193.681 137.512 195.625 136.967 196.508 135.878C197.421 134.759 197.877 132.86 197.877 130.18V94.7565C197.877 92.0181 197.406 90.1188 196.464 89.0587C195.551 87.9692 193.622 87.4245 190.678 87.4245H189.75V82.5217H221.684V87.4245H220.713C217.739 87.4245 215.795 87.9839 214.882 89.1029C213.999 90.1924 213.557 92.077 213.557 94.7565V111.452L229.767 96.5233C232.594 93.9321 234.008 91.8119 234.008 90.1629C234.008 88.3373 232.226 87.4245 228.663 87.4245V82.5217H255.165V87.4245C252.75 87.4245 250.218 88.0428 247.567 89.2796C244.917 90.5163 241.163 93.3873 236.304 97.8925L230.872 102.928L247.347 127.398C250.115 131.52 252.397 134.244 254.193 135.569C256.018 136.864 258.448 137.512 261.481 137.512V142.415H227.073V137.512C231.549 137.512 233.787 136.614 233.787 134.818C233.787 134.052 232.874 132.344 231.048 129.694L219.653 113.087L213.557 118.74Z" fill="white"/>
<path d="M258.212 87.4245V82.5217H289.837V87.4245H288.821C285.847 87.4245 283.919 87.9692 283.035 89.0587C282.152 90.1482 281.71 92.0475 281.71 94.7565V118.387C281.71 122.686 282.064 126.072 282.77 128.546C283.477 131.019 285.023 133.125 287.408 134.862C289.793 136.599 292.649 137.468 295.977 137.468C299.599 137.468 302.691 136.541 305.252 134.685C307.844 132.83 309.522 130.578 310.288 127.928C311.053 125.248 311.436 121.523 311.436 116.753V96.6116C311.436 90.4869 308.477 87.4245 302.558 87.4245V82.5217H324.731V87.4245C323.465 87.4245 322.14 87.7925 320.756 88.5287C319.372 89.2354 318.415 90.2366 317.885 91.5322C317.355 92.7984 317.09 94.5799 317.09 96.8767V116.885C317.09 121.184 316.81 124.703 316.25 127.442C315.72 130.151 314.44 132.771 312.408 135.304C310.376 137.807 307.549 139.824 303.927 141.355C300.305 142.886 296.286 143.652 291.869 143.652C287.246 143.652 283.094 142.901 279.413 141.399C275.762 139.868 272.965 137.954 271.021 135.657C269.078 133.331 267.753 130.813 267.046 128.104C266.369 125.366 266.03 122.127 266.03 118.387V94.7565C266.03 91.9297 265.544 90.001 264.573 88.9704C263.601 87.9398 261.481 87.4245 258.212 87.4245Z" fill="white"/>
<path d="M342.796 99.571V127.088C342.796 131.505 343.591 134.347 345.181 135.613C346.801 136.879 348.862 137.512 351.365 137.512V142.415H328.883V137.512C330.797 137.512 332.461 137.056 333.874 136.143C335.287 135.201 336.185 134.126 336.568 132.919C336.951 131.682 337.142 129.753 337.142 127.133V96.5675C337.142 90.4721 334.286 87.4245 328.574 87.4245V82.5217H348.803L381.621 119.182V97.23C381.621 90.693 378.868 87.4245 373.361 87.4245V82.5217H394.872V87.4245C393.37 87.4245 391.956 87.8367 390.631 88.6612C389.336 89.4857 388.452 90.5458 387.981 91.8414C387.51 93.1076 387.274 94.9627 387.274 97.4067V143.387H381.621L342.796 99.571Z" fill="white"/>
<path d="M423.14 113.838V130.18C423.14 132.919 423.611 134.833 424.553 135.922C425.495 136.982 427.454 137.512 430.428 137.512H431.664V142.415H399.421V137.512H400.304C403.278 137.512 405.207 136.967 406.09 135.878C407.003 134.759 407.46 132.86 407.46 130.18V94.6682C407.46 91.9297 406.989 90.0304 406.046 88.9704C405.133 87.8809 403.219 87.3361 400.304 87.3361H399.244V82.5217H449.465L449.862 98.3784H444.871C444.135 95.6694 443.193 93.4756 442.044 91.7972C440.896 90.1188 439.703 89.0293 438.466 88.5287C437.23 88.0281 435.345 87.7778 432.813 87.7778H423.14V108.449H427.866C430.104 108.449 431.65 107.978 432.504 107.036C433.387 106.064 433.932 104.091 434.138 101.117H439.085V121.7H434.138C433.991 118.49 433.475 116.385 432.592 115.384C431.709 114.353 430.104 113.838 427.778 113.838H423.14Z" fill="white"/>
<path d="M474.376 87.8662H469.341C466.337 87.8662 464.129 88.1901 462.715 88.8379C461.302 89.4857 460.109 90.7813 459.138 92.7248C458.195 94.6388 457.621 96.9208 457.415 99.571H452.424V82.5217H512.361V99.571H507.37C506.428 94.9774 505.103 91.8856 503.395 90.2955C501.687 88.6759 498.963 87.8662 495.224 87.8662H490.056V130.18C490.056 132.919 490.512 134.833 491.425 135.922C492.367 136.982 494.326 137.512 497.3 137.512H498.846V142.415H465.763V137.512H467.176C470.18 137.512 472.123 136.967 473.007 135.878C473.919 134.759 474.376 132.86 474.376 130.18V87.8662Z" fill="white"/>
<path d="M520.003 141.399V120.905H525.303C526.775 127.029 528.984 131.402 531.928 134.023C534.873 136.644 538.053 137.954 541.469 137.954C544.001 137.954 546.018 137.203 547.52 135.701C549.022 134.2 549.773 132.433 549.773 130.401C549.773 128.958 549.302 127.515 548.359 126.072C547.417 124.63 545.179 123.025 541.645 121.258C534.843 117.872 530.25 115.398 527.865 113.838C525.48 112.248 523.566 110.216 522.123 107.742C520.68 105.269 519.958 102.427 519.958 99.2176C519.958 94.0646 521.799 89.8243 525.48 86.4969C529.19 83.1401 533.474 81.4616 538.333 81.4616C543.427 81.4616 547.756 83.1695 551.319 86.5853C551.907 85.7019 552.393 84.3474 552.776 82.5217H557.856V100.189H552.909C552.025 96.273 550.347 93.0487 547.873 90.5163C545.4 87.9839 542.617 86.7178 539.525 86.7178C537.199 86.7178 535.344 87.3656 533.96 88.6612C532.606 89.9568 531.928 91.5764 531.928 93.5198C531.928 95.0216 532.37 96.4202 533.253 97.7159C534.137 98.982 535.329 100.042 536.831 100.896C538.333 101.721 541.513 103.266 546.372 105.534C550.73 107.595 553.954 109.435 556.045 111.055C558.135 112.674 559.784 114.721 560.992 117.194C562.228 119.638 562.847 122.289 562.847 125.145C562.847 130.445 560.889 134.862 556.972 138.396C553.056 141.9 548.389 143.652 542.971 143.652C539.879 143.652 536.846 143.004 533.872 141.708C530.927 140.413 528.571 138.69 526.805 136.541C526.127 137.866 525.627 139.485 525.303 141.399H520.003Z" fill="white"/>
<path d="M22.57 239.851L7.99416 192.413C6.69854 188.173 5.56486 185.656 4.59314 184.861C3.65087 184.036 2.14912 183.624 0.0878906 183.624V178.721H27.3844V183.624C24.1159 183.624 22.4816 184.625 22.4816 186.627C22.4816 187.776 22.7172 189.13 23.1883 190.691L31.5805 217.413L44.2128 178.721H51.0591L66.2091 217.413L72.9228 193.12C73.4234 191.236 73.6737 189.793 73.6737 188.792C73.6737 185.346 71.7155 183.624 67.7991 183.624V178.721H86.9686V183.624C85.1723 183.624 83.6117 184.257 82.2866 185.523C80.9616 186.76 79.4156 190.529 77.6489 196.83L65.6349 239.851H58.7445L43.1086 199.657L29.6812 239.851H22.57Z" fill="white"/>
<path d="M88.2053 183.624V178.721H119.875V183.624H118.947C115.973 183.624 114.03 184.183 113.117 185.302C112.233 186.392 111.792 188.276 111.792 190.956V226.38C111.792 229.118 112.248 231.032 113.161 232.121C114.103 233.182 116.032 233.712 118.947 233.712H119.875V238.614H88.2053V233.712C91.3855 233.712 93.4909 233.226 94.5215 232.254C95.5815 231.282 96.1116 229.324 96.1116 226.38V190.956C96.1116 188.1 95.611 186.171 94.6098 185.17C93.6381 184.139 91.5033 183.624 88.2053 183.624Z" fill="white"/>
<path d="M148.364 212.201V226.38C148.364 229.118 148.835 231.032 149.777 232.121C150.719 233.182 152.648 233.712 155.563 233.712H156.623V238.614H124.336V233.712H125.528C128.532 233.712 130.475 233.167 131.359 232.077C132.271 230.958 132.728 229.059 132.728 226.38V190.956C132.728 188.217 132.257 186.318 131.314 185.258C130.372 184.169 128.443 183.624 125.528 183.624H124.336V178.721L148.364 178.677L153.752 178.633C159.082 178.633 162.969 178.809 165.413 179.163C167.886 179.516 170.316 180.37 172.701 181.725C175.086 183.05 176.956 184.875 178.31 187.201C179.694 189.528 180.386 192.031 180.386 194.71C180.386 201.836 176.352 206.71 168.284 209.33C170.433 210.685 173.776 214.925 178.31 222.051C181.844 227.557 184.361 230.885 185.863 232.033C187.365 233.152 189.014 233.712 190.81 233.712V238.614H172.082C170.375 236.583 167.209 231.429 162.586 223.155C160.26 218.974 158.626 216.279 157.683 215.072C156.741 213.865 155.769 213.099 154.768 212.775C153.796 212.422 151.662 212.231 148.364 212.201ZM148.364 206.813C153.34 206.871 156.697 206.577 158.434 205.929C160.172 205.252 161.541 204.059 162.542 202.351C163.543 200.614 164.044 198.273 164.044 195.329C164.044 191.118 163.042 188.203 161.04 186.583C159.067 184.964 155.652 184.154 150.793 184.154C150.175 184.154 149.365 184.169 148.364 184.198V206.813Z" fill="white"/>
<path d="M210.642 184.065H205.607C202.603 184.065 200.395 184.389 198.981 185.037C197.568 185.685 196.375 186.981 195.404 188.924C194.461 190.838 193.887 193.12 193.681 195.77H188.69V178.721H248.628V195.77H243.636C242.694 191.177 241.369 188.085 239.661 186.495C237.953 184.875 235.23 184.065 231.49 184.065H226.322V226.38C226.322 229.118 226.779 231.032 227.691 232.121C228.634 233.182 230.592 233.712 233.566 233.712H235.112V238.614H202.029V233.712H203.443C206.446 233.712 208.389 233.167 209.273 232.077C210.186 230.958 210.642 229.059 210.642 226.38V184.065Z" fill="white"/>
<path d="M256.269 237.598V217.104H261.569C263.041 223.229 265.25 227.602 268.194 230.222C271.139 232.843 274.319 234.153 277.735 234.153C280.267 234.153 282.284 233.402 283.786 231.901C285.288 230.399 286.039 228.632 286.039 226.6C286.039 225.157 285.568 223.715 284.625 222.272C283.683 220.829 281.445 219.224 277.912 217.457C271.11 214.071 266.516 211.598 264.131 210.037C261.746 208.447 259.832 206.415 258.389 203.942C256.946 201.468 256.225 198.627 256.225 195.417C256.225 190.264 258.065 186.024 261.746 182.696C265.456 179.339 269.74 177.661 274.599 177.661C279.693 177.661 284.022 179.369 287.585 182.785C288.174 181.901 288.659 180.547 289.042 178.721H294.122V196.389H289.175C288.291 192.472 286.613 189.248 284.139 186.716C281.666 184.183 278.883 182.917 275.792 182.917C273.465 182.917 271.61 183.565 270.226 184.861C268.872 186.156 268.194 187.776 268.194 189.719C268.194 191.221 268.636 192.62 269.52 193.915C270.403 195.181 271.595 196.241 273.097 197.095C274.599 197.92 277.779 199.466 282.638 201.733C286.996 203.794 290.22 205.635 292.311 207.254C294.401 208.874 296.05 210.92 297.258 213.394C298.494 215.838 299.113 218.488 299.113 221.344C299.113 226.645 297.155 231.061 293.238 234.595C289.322 238.099 284.655 239.851 279.237 239.851C276.145 239.851 273.112 239.203 270.138 237.908C267.193 236.612 264.838 234.889 263.071 232.74C262.394 234.065 261.893 235.684 261.569 237.598H256.269Z" fill="white"/>
<path d="M364.086 215.602V238.084H359.183C358.623 235.699 357.784 233.785 356.665 232.342C351.689 237.348 345.122 239.851 336.966 239.851C327.69 239.851 320.27 236.818 314.705 230.752C309.139 224.686 306.357 217.487 306.357 209.154C306.357 200.938 309.11 193.635 314.616 187.246C320.123 180.856 327.734 177.661 337.452 177.661C344.725 177.661 350.894 180.061 355.959 184.861C356.636 183.359 357.254 181.577 357.814 179.516H362.672L363.291 201.645H358.432C356.989 195.638 354.619 191.103 351.321 188.041C348.052 184.949 344.165 183.403 339.66 183.403C334.478 183.403 330.576 185.435 327.955 189.498C325.335 193.562 324.024 199.907 324.024 208.535C324.024 214.601 324.495 219.415 325.438 222.978C326.38 226.512 328.235 229.236 331.003 231.15C333.8 233.064 336.848 234.021 340.146 234.021C344.504 234.021 348.391 232.504 351.807 229.471C355.222 226.438 357.681 221.815 359.183 215.602H364.086Z" fill="white"/>
<path d="M395.976 209.904V226.38C395.976 229.177 396.462 231.106 397.433 232.166C398.405 233.196 400.496 233.712 403.705 233.712V238.614H372.478V233.712C375.629 233.712 377.719 233.226 378.75 232.254C379.81 231.253 380.34 229.295 380.34 226.38V190.956C380.34 188.129 379.839 186.2 378.838 185.17C377.866 184.139 375.746 183.624 372.478 183.624V178.721H403.705V183.624C400.584 183.624 398.508 184.139 397.477 185.17C396.476 186.171 395.976 188.1 395.976 190.956V204.383H420.578V190.956C420.578 188.188 420.092 186.274 419.12 185.214C418.178 184.154 416.132 183.624 412.981 183.624V178.721H444.12V183.624C440.94 183.624 438.82 184.11 437.76 185.081C436.729 186.053 436.214 188.011 436.214 190.956V226.38C436.214 229.236 436.714 231.179 437.716 232.21C438.717 233.211 440.852 233.712 444.12 233.712V238.614H412.981V233.712C416.073 233.712 418.104 233.196 419.076 232.166C420.077 231.135 420.578 229.206 420.578 226.38V209.904H395.976Z" fill="white"/>
<path d="M460.419 222.448L459.27 225.408C458.446 227.498 458.033 228.971 458.033 229.825C458.033 231.268 458.519 232.283 459.491 232.872C460.463 233.432 462.053 233.712 464.261 233.712V238.614H444.473V233.712C448.243 233.712 451.408 230.502 453.97 224.083L472.388 177.661H477.556L496.328 224.039C498.183 228.632 499.862 231.4 501.363 232.342C502.865 233.255 504.308 233.712 505.692 233.712V238.614H475.966V233.712C478.646 233.712 480.309 233.461 480.957 232.961C481.605 232.431 481.929 231.768 481.929 230.973C481.929 230.266 481.664 229.339 481.134 228.19L480.56 226.821L478.837 222.448H460.419ZM462.318 217.369H476.849L469.385 199.48L462.318 217.369Z" fill="white"/>
<path d="M529.808 210.037V226.38C529.808 229.118 530.279 231.032 531.222 232.121C532.164 233.182 534.122 233.712 537.096 233.712H538.333V238.614H506.089V233.712H506.973C509.947 233.712 511.875 233.167 512.759 232.077C513.672 230.958 514.128 229.059 514.128 226.38V190.868C514.128 188.129 513.657 186.23 512.715 185.17C511.802 184.08 509.888 183.535 506.973 183.535H505.913V178.721H556.133L556.53 194.578H551.539C550.803 191.869 549.861 189.675 548.713 187.997C547.564 186.318 546.372 185.229 545.135 184.728C543.898 184.227 542.014 183.977 539.481 183.977H529.808V204.648H534.534C536.772 204.648 538.318 204.177 539.172 203.235C540.055 202.263 540.6 200.29 540.806 197.316H545.753V217.899H540.806C540.659 214.689 540.144 212.584 539.26 211.583C538.377 210.552 536.772 210.037 534.446 210.037H529.808Z" fill="white"/>
<path d="M581.044 184.065H576.009C573.006 184.065 570.797 184.389 569.384 185.037C567.97 185.685 566.778 186.981 565.806 188.924C564.864 190.838 564.289 193.12 564.083 195.77H559.092V178.721H619.03V195.77H614.039C613.096 191.177 611.771 188.085 610.063 186.495C608.356 184.875 605.632 184.065 601.892 184.065H596.724V226.38C596.724 229.118 597.181 231.032 598.094 232.121C599.036 233.182 600.994 233.712 603.968 233.712H605.514V238.614H572.431V233.712H573.845C576.848 233.712 578.792 233.167 579.675 232.077C580.588 230.958 581.044 229.059 581.044 226.38V184.065Z" fill="white"/>
</svg>
