<svg width="178" height="88" viewBox="0 0 178 88" fill="none" xmlns="http://www.w3.org/2000/svg">
<path d="M38.5952 11.2046C38.7542 11.9998 39.0971 12.5763 39.6239 12.9341C40.1507 13.282 40.9359 13.4559 41.9796 13.4559C42.5163 13.4559 42.9586 13.3963 43.3065 13.277C43.6644 13.1577 43.9476 12.9987 44.1564 12.7999C44.3651 12.6011 44.5142 12.3675 44.6036 12.0992C44.6931 11.8308 44.7378 11.5475 44.7378 11.2493C44.7378 11.0009 44.708 10.7673 44.6484 10.5486C44.5987 10.32 44.4943 10.1162 44.3353 9.93731C44.1862 9.74846 43.9675 9.58446 43.6793 9.4453C43.391 9.30615 43.0133 9.19681 42.5461 9.11729L41.2192 8.89365C40.7024 8.8042 40.2402 8.68989 39.8326 8.55074C39.435 8.41158 39.0971 8.23267 38.8188 8.014C38.5405 7.78539 38.3268 7.50211 38.1777 7.16416C38.0385 6.82621 37.969 6.41372 37.969 5.92668C37.969 5.43964 38.0684 5.0172 38.2671 4.65938C38.4759 4.30155 38.7492 4.00833 39.0872 3.77972C39.435 3.54117 39.8376 3.36723 40.2948 3.25789C40.762 3.13862 41.254 3.07898 41.7709 3.07898C42.4368 3.07898 42.9934 3.15353 43.4407 3.30262C43.888 3.44177 44.2558 3.63063 44.544 3.86918C44.8323 4.10773 45.0559 4.38107 45.2149 4.6892C45.374 4.98738 45.4982 5.29054 45.5877 5.59867L44.7527 5.83722C44.6533 5.52909 44.5341 5.25575 44.3949 5.0172C44.2657 4.76871 44.0868 4.55998 43.8582 4.39101C43.6395 4.22203 43.3612 4.09282 43.0233 4.00336C42.6853 3.91391 42.2728 3.86918 41.7858 3.86918C41.2391 3.86918 40.7819 3.92385 40.4141 4.03318C40.0463 4.13258 39.7481 4.2767 39.5195 4.46555C39.2909 4.64447 39.1269 4.86314 39.0275 5.12157C38.9281 5.37006 38.8784 5.63843 38.8784 5.92668C38.8784 6.22487 38.9132 6.4833 38.9828 6.70197C39.0524 6.92064 39.1717 7.10949 39.3406 7.26853C39.5096 7.42756 39.7332 7.56174 40.0115 7.67108C40.2998 7.78042 40.6576 7.87484 41.085 7.95436L42.5909 8.22273C43.1276 8.32213 43.5898 8.45134 43.9775 8.61037C44.375 8.76941 44.703 8.97317 44.9615 9.22166C45.2199 9.46021 45.4088 9.74846 45.528 10.0864C45.6572 10.4244 45.7219 10.8219 45.7219 11.2792C45.7219 11.6867 45.6423 12.0743 45.4833 12.4421C45.3243 12.7999 45.0857 13.113 44.7677 13.3814C44.4595 13.6498 44.0719 13.8635 43.6047 14.0225C43.1376 14.1815 42.5909 14.261 41.9647 14.261C41.3882 14.261 40.8514 14.2064 40.3545 14.097C39.8674 13.9877 39.435 13.8138 39.0573 13.5752C38.6896 13.3267 38.3864 13.0087 38.1479 12.621C37.9093 12.2334 37.7602 11.7612 37.7006 11.2046H38.5952ZM53.6121 3.34735H54.6856L58.89 13.9927H57.906L56.6238 10.7424H51.6142L50.3469 13.9927H49.3927L53.6121 3.34735ZM56.2958 9.90749L54.1041 4.34628L51.9422 9.90749H56.2958ZM63.3631 3.34735H64.2725V13.1428H70.0574L69.8636 13.9927H63.3631V3.34735ZM78.2427 14.261C77.5568 14.261 76.9157 14.1467 76.3193 13.9181C75.7329 13.6796 75.226 13.3267 74.7986 12.8596C74.3712 12.3924 74.0332 11.8109 73.7847 11.1152C73.5462 10.4194 73.4269 9.61428 73.4269 8.69983C73.4269 7.78539 73.5462 6.98028 73.7847 6.2845C74.0332 5.57879 74.3712 4.99235 74.7986 4.52519C75.2359 4.04809 75.7478 3.69026 76.3343 3.45171C76.9207 3.20322 77.5568 3.07898 78.2427 3.07898C78.9285 3.07898 79.5646 3.19825 80.1511 3.4368C80.7375 3.66542 81.2395 4.0133 81.6569 4.48046C82.0843 4.94763 82.4173 5.52909 82.6559 6.22487C82.9043 6.9107 83.0286 7.71084 83.0286 8.62528C83.0286 9.54967 82.9093 10.3647 82.6708 11.0704C82.4322 11.7662 82.0992 12.3526 81.6718 12.8297C81.2544 13.2969 80.7524 13.6547 80.166 13.9032C79.5795 14.1418 78.9384 14.261 78.2427 14.261ZM78.2427 13.4559C78.8689 13.4559 79.4205 13.3416 79.8976 13.113C80.3747 12.8745 80.7723 12.5465 81.0904 12.129C81.4184 11.7016 81.6619 11.1947 81.8209 10.6082C81.9899 10.0218 82.0744 9.37572 82.0744 8.67001C82.0744 7.9643 81.9899 7.31822 81.8209 6.73179C81.652 6.14535 81.4035 5.6434 81.0755 5.22594C80.7574 4.79853 80.3598 4.47052 79.8827 4.24191C79.4056 4.00336 78.8589 3.88409 78.2427 3.88409C77.5966 3.88409 77.03 4.00336 76.543 4.24191C76.0659 4.47052 75.6683 4.79853 75.3502 5.22594C75.0322 5.6434 74.7886 6.14535 74.6197 6.73179C74.4606 7.31822 74.3811 7.9643 74.3811 8.67001C74.3811 9.37572 74.4606 10.0218 74.6197 10.6082C74.7787 11.1947 75.0173 11.7016 75.3353 12.129C75.6633 12.5465 76.0659 12.8745 76.543 13.113C77.03 13.3416 77.5966 13.4559 78.2427 13.4559ZM88.1536 3.34735H89.1525L95.1163 12.5614V3.34735H95.9959V13.9927H95.0119L89.0332 4.74883V13.9927H88.1536V3.34735ZM107.906 3.34735H114.302V4.16737H108.816V8.20782H113.96V9.05766H108.816V13.9927H107.906V3.34735ZM119.142 3.34735H120.052V9.83295C120.052 11.0356 120.285 11.9401 120.753 12.5465C121.22 13.1528 121.99 13.4559 123.064 13.4559C123.61 13.4559 124.067 13.3814 124.435 13.2323C124.813 13.0733 125.116 12.8447 125.345 12.5465C125.583 12.2383 125.752 11.8606 125.852 11.4133C125.961 10.9561 126.016 10.4293 126.016 9.83295V3.34735H126.925V9.81804C126.925 10.6033 126.836 11.2792 126.657 11.8457C126.488 12.4023 126.234 12.8596 125.896 13.2174C125.568 13.5752 125.161 13.8386 124.674 14.0076C124.197 14.1766 123.655 14.261 123.049 14.261C122.422 14.261 121.866 14.1766 121.379 14.0076C120.902 13.8386 120.494 13.5752 120.156 13.2174C119.828 12.8496 119.575 12.3825 119.396 11.8159C119.227 11.2394 119.142 10.5536 119.142 9.7584V3.34735ZM121.304 0.842565H122.303V2.13969H121.304V0.842565ZM123.749 0.842565H124.763V2.13969H123.749V0.842565ZM132.362 3.34735H135.702C136.467 3.34735 137.093 3.43183 137.58 3.60081C138.077 3.76978 138.465 3.98845 138.743 4.25682C139.031 4.52519 139.225 4.83332 139.325 5.18121C139.434 5.52909 139.489 5.88195 139.489 6.23978C139.489 6.91567 139.335 7.49217 139.026 7.96927C138.728 8.44637 138.236 8.80917 137.55 9.05766L139.846 13.9927H138.788L136.656 9.26639C136.487 9.28627 136.313 9.30615 136.134 9.32603C135.955 9.33597 135.766 9.34094 135.567 9.34094H133.257V13.9927H132.362V3.34735ZM135.821 8.53583C136.358 8.53583 136.8 8.48613 137.148 8.38673C137.506 8.2774 137.789 8.12333 137.998 7.92454C138.206 7.72575 138.351 7.4872 138.43 7.20889C138.52 6.93058 138.564 6.61251 138.564 6.25469C138.564 5.9068 138.52 5.60364 138.43 5.34521C138.341 5.07684 138.182 4.8532 137.953 4.67429C137.734 4.49537 137.436 4.36119 137.058 4.27173C136.691 4.18228 136.224 4.13755 135.657 4.13755H133.257V8.53583H135.821Z" fill="white"/>
<path d="M17.2278 25.2661V26.0949L7.4303 45.1275H10.2719C13.883 45.1275 16.0438 43.3219 17.0502 39.0595H17.7606L17.4054 45.9858H2.30957V45.2459L12.2254 26.1245H9.47267C6.00952 26.1245 4.67754 26.7757 3.16796 31.5116H2.45757L2.84236 25.2661H17.2278ZM35.9548 45.9858H30.1533L29.9165 43.5883C29.2949 44.9499 28.0517 46.2818 25.3286 46.2818C22.5758 46.2818 20.7998 44.9203 20.7998 41.3387V32.666H18.8463V31.8964H24.9734V41.7827C24.9734 44.1211 25.3582 44.9795 26.7493 44.9795C28.4069 44.9795 29.8277 43.1739 29.8277 40.9243V32.666H28.0221V31.8964H34.0012V45.2163H35.9548V45.9858ZM46.2102 45.9858V45.2163H47.8973L44.0198 38.6451L43.0134 38.8523V45.2163H44.671V45.9858H36.9159V45.2163H38.8399V24.5557H36.8567V23.7861H43.0134V37.994L43.783 37.7868L49.6437 32.666H47.1869V31.8964H53.1069V32.666H51.0053L47.0685 36.1588L52.4853 45.2163H53.7876V45.9858H46.2102ZM71.1043 45.9858H65.3028L65.066 43.5883C64.4444 44.9499 63.2012 46.2818 60.4781 46.2818C57.7253 46.2818 55.9493 44.9203 55.9493 41.3387V32.666H53.9958V31.8964H60.1229V41.7827C60.1229 44.1211 60.5077 44.9795 61.8989 44.9795C63.5564 44.9795 64.9772 43.1739 64.9772 40.9243V32.666H63.1716V31.8964H69.1508V45.2163H71.1043V45.9858ZM72.0654 31.8964H78.1629V34.5604C78.8141 33.0804 80.0573 31.6004 82.9876 31.6004C85.7108 31.6004 87.4572 32.962 87.4572 36.5436V45.2163H89.4107V45.9858H81.5669V45.2163H83.2836V36.0996C83.2836 33.7612 82.8396 32.9916 81.5669 32.9916C79.7909 32.9916 78.1629 34.9452 78.1629 37.5204V45.2163H79.9093V45.9858H72.0654V45.2163H73.9894V32.666H72.0654V31.8964ZM101.88 42.2563V32.666H96.3447V45.2163H99.9558V45.9858H90.2768V45.2163H92.2007V32.666H90.188V31.8964H92.2007V30.9788C92.2007 26.1245 93.8879 23.1054 98.5055 23.1054C101.406 23.1054 102.797 24.6149 102.797 26.3317C102.797 27.8413 101.939 28.6109 100.696 28.6109C99.3934 28.6109 98.683 27.9005 98.683 26.7757C98.683 26.3909 98.7422 25.9765 98.8606 25.6213H99.8078C99.8966 25.3253 99.9262 25.0885 99.9262 24.8813C99.9262 24.1709 99.3934 23.8157 98.5351 23.8157C96.6407 23.8157 96.3447 25.3549 96.3447 27.5453V31.8964H101.88V29.4693L106.053 28.4037V31.8964H110.049V32.666H106.053V42.3747C106.053 44.0619 106.409 44.9203 107.681 44.9203C109.102 44.9203 109.901 43.7659 110.168 41.7531L110.878 41.8419C110.612 44.1507 109.694 46.2818 106.29 46.2818C103.715 46.2818 101.88 45.4234 101.88 42.2563ZM112.087 46.2818V41.1611H112.768C113.419 44.2395 115.313 45.3346 117.711 45.3346C119.99 45.3346 120.908 44.4467 120.908 43.1739C120.908 41.5459 119.339 41.2499 117.208 40.7467C114.84 40.2139 112.205 39.5331 112.205 36.3364C112.205 33.5836 114.218 31.6004 117.267 31.6004C118.54 31.6004 119.369 31.8964 120.227 32.2812C120.493 32.3996 120.76 32.518 121.056 32.518C121.411 32.518 121.529 32.222 121.648 31.5412H122.24V36.0108H121.589C120.789 33.554 119.398 32.4292 117.326 32.4292C115.491 32.4292 114.425 33.1396 114.425 34.3236C114.425 35.8924 116.142 36.218 118.125 36.662C120.464 37.2244 123.068 37.9644 123.068 41.4571C123.068 44.4763 121.056 46.2818 117.711 46.2818C116.172 46.2818 115.047 45.9266 113.981 45.3642C113.804 45.2459 113.597 45.1275 113.478 45.1275C113.153 45.1275 112.975 45.3642 112.709 46.2818H112.087Z" fill="white"/>
<path d="M46.5156 59.0806V58.311H53.4715V59.0806H51.9619L55.2179 68.7004L58.0594 59.0806H55.9282V58.311H60.3978V59.0806H59.0066L54.9219 72.4892H52.5835L49.2091 63.0173L45.6868 72.4892H43.4372L38.5533 59.0806H37.1621V58.311H44.6804V59.0806H42.9932L46.1308 68.8188L48.7059 61.7149L47.8476 59.0806H46.5156ZM62.356 53.4863C62.356 52.3023 63.096 51.2367 64.7831 51.2367C66.2039 51.2367 67.1215 51.9471 67.1215 53.4863C67.1215 54.7886 66.3815 55.7654 64.7535 55.7654C62.8592 55.7654 62.356 54.5518 62.356 53.4863ZM60.9056 58.311H67.0623V71.6308H69.0159V72.4004H60.9648V71.6308H62.8888V59.0806H60.9056V58.311ZM79.0402 59.2286C77.4418 59.2286 76.0506 61.6557 76.0506 64.3197V71.6308H78.685V72.4004H69.9531V71.6308H71.8771V59.0806H69.9531V58.311H76.0506V61.0637C76.6722 58.9622 78.1226 58.015 79.8394 58.015C81.645 58.015 82.8882 59.1694 82.8882 61.0933C82.8882 62.7805 82.0298 63.6093 80.757 63.6093C79.573 63.6093 78.685 62.9581 78.685 61.4189C78.685 61.1525 78.7146 60.8566 78.7738 60.5606H79.6914C79.8098 60.2942 79.8394 60.087 79.8394 59.9094C79.8394 59.347 79.425 59.2286 79.0402 59.2286ZM85.2536 68.6708V59.0806H83.3296V58.311H85.2536V54.4926L89.4567 53.4271V58.311H93.4231V59.0806H89.4567V68.7892C89.4567 70.4764 89.7823 71.3348 91.0847 71.3348C92.5055 71.3348 93.3047 70.1804 93.5711 68.1676L94.2519 68.2564C93.9855 70.5652 93.0679 72.6964 89.6935 72.6964C87.1184 72.6964 85.2536 71.838 85.2536 68.6708ZM95.464 72.6964V67.5757H96.1448C96.796 70.654 98.6904 71.7492 101.088 71.7492C103.367 71.7492 104.285 70.8612 104.285 69.5884C104.285 67.9605 102.716 67.6645 100.585 67.1613C98.2168 66.6285 95.5824 65.9477 95.5824 62.7509C95.5824 59.9982 97.5952 58.015 100.644 58.015C101.917 58.015 102.746 58.311 103.604 58.6958C103.87 58.8142 104.137 58.9326 104.433 58.9326C104.788 58.9326 104.906 58.6366 105.025 57.9558H105.617V62.4253H104.966C104.166 59.9686 102.775 58.8438 100.703 58.8438C98.868 58.8438 97.8024 59.5542 97.8024 60.7382C97.8024 62.3069 99.5192 62.6325 101.502 63.0765C103.841 63.6389 106.445 64.3789 106.445 67.8717C106.445 70.8908 104.433 72.6964 101.088 72.6964C99.5488 72.6964 98.424 72.3412 97.3584 71.7788C97.1808 71.6604 96.9736 71.542 96.8552 71.542C96.5296 71.542 96.352 71.7788 96.0856 72.6964H95.464ZM115.608 58.7254C113.329 58.7254 112.322 60.4422 112.322 65.3557C112.322 69.7956 113.299 71.5716 115.845 71.5716C118.568 71.5716 119.515 69.4404 119.841 67.7533L120.669 67.8717C120.314 69.7068 119.367 72.6964 114.69 72.6964C110.339 72.6964 107.912 70.1508 107.912 65.5925C107.912 60.5606 110.872 58.015 115.401 58.015C118.775 58.015 120.581 59.495 120.581 61.7741C120.581 63.4317 119.722 64.2605 118.45 64.2605C117.177 64.2605 116.259 63.5205 116.259 62.0997C116.259 61.8333 116.289 61.4485 116.407 61.0341H117.325C117.414 60.7382 117.473 60.4422 117.473 60.1758C117.473 59.347 116.881 58.7254 115.608 58.7254ZM121.752 50.2007H127.85V60.9453C128.472 59.495 129.744 58.015 132.645 58.015C135.398 58.015 137.144 59.3766 137.144 62.9581V71.6308H139.098V72.4004H131.254V71.6308H132.971V62.5141C132.971 60.0278 132.497 59.3174 131.313 59.3174C129.448 59.3174 127.85 61.2709 127.85 63.8165V71.6308H129.596V72.4004H121.752V71.6308H123.676V50.9703H121.752V50.2007ZM146.831 65.3261H148.163V63.1653C148.163 59.939 147.66 58.7254 145.854 58.7254C144.818 58.7254 143.989 59.0806 143.989 59.8798C143.989 60.0574 144.019 60.2646 144.078 60.4718H144.877C145.025 60.8566 145.114 61.2413 145.114 61.7149C145.114 62.9581 144.197 63.6981 142.983 63.6981C141.562 63.6981 140.911 62.8397 140.911 61.5373C140.911 59.2286 143.19 58.015 146.565 58.015C150.679 58.015 152.307 59.3174 152.307 63.6093V69.4404C152.307 70.6836 152.662 71.098 153.224 71.098C153.816 71.098 154.201 70.6244 154.408 68.2564L155.089 68.3156C154.941 71.5716 153.964 72.6964 151.656 72.6964C149.672 72.6964 148.577 71.986 148.281 70.5948C147.63 71.986 146.387 72.6964 144.493 72.6964C142.332 72.6964 140.26 71.9564 140.26 69.174C140.26 66.1253 142.835 65.3261 146.831 65.3261ZM146.002 71.4236C147.068 71.4236 148.163 70.358 148.163 68.5228V66.0661H147.482C145.351 66.0661 144.581 67.1021 144.581 69.0852C144.581 70.8316 145.025 71.4236 146.002 71.4236ZM167.349 68.6708V59.0806H161.814V71.6308H165.425V72.4004H155.746V71.6308H157.67V59.0806H155.658V58.311H157.67V57.3934C157.67 52.5391 159.358 49.5199 163.975 49.5199C166.876 49.5199 168.267 51.0295 168.267 52.7463C168.267 54.2558 167.409 55.0254 166.165 55.0254C164.863 55.0254 164.153 54.315 164.153 53.1903C164.153 52.8055 164.212 52.3911 164.33 52.0359H165.277C165.366 51.7399 165.396 51.5031 165.396 51.2959C165.396 50.5855 164.863 50.2303 164.005 50.2303C162.11 50.2303 161.814 51.7695 161.814 53.9598V58.311H167.349V55.8838L171.523 54.8182V58.311H175.519V59.0806H171.523V68.7892C171.523 70.4764 171.878 71.3348 173.151 71.3348C174.572 71.3348 175.371 70.1804 175.637 68.1676L176.348 68.2564C176.081 70.5652 175.164 72.6964 171.76 72.6964C169.185 72.6964 167.349 71.838 167.349 68.6708Z" fill="white"/>
</svg>
